<svg width="721" height="439" viewBox="0 0 721 439" fill="none" xmlns="http://www.w3.org/2000/svg">
<g clip-path="url(#clip0_35_186)">
<path d="M177.839 288.877H65.9111V292.997H177.839V288.877Z" fill="#F2F2F2"/>
<path d="M482.313 288.877H354.731V293.573H482.313V288.877Z" fill="#F2F2F2"/>
<path d="M678.773 288.877H551.191V293.573H678.773V288.877Z" fill="#F2F2F2"/>
<path d="M679.52 217.742C678.347 218.349 677.256 219.103 676.274 219.986C675.275 219.099 674.166 218.344 672.974 217.742C671.8 218.349 670.709 219.103 669.727 219.986C668.729 219.099 667.62 218.344 666.427 217.742C666.427 217.742 661.338 220.245 661.353 223.303C661.353 223.38 661.356 223.456 661.363 223.532C661.537 225.534 666.798 226.044 669.688 225.101C671.828 225.711 674.095 225.711 676.235 225.101C679.113 226.059 684.481 225.51 684.638 223.485C684.644 223.409 684.646 223.333 684.646 223.256C684.632 220.198 679.52 217.742 679.52 217.742Z" fill="#3F3D56"/>
<path d="M5.45705 112.538L0.942383 108.926L26.2215 86.356H90.3223V106.218L48.7925 134.205L5.45705 112.538Z" fill="#474A56"/>
<path d="M102.01 99.0163V86.8068H93.4993V89.7967L90.3223 86.356L69.5578 108.926L61.4325 114.343L48.8333 206.391L67.8335 225.391H111.991V109.829L102.01 99.0163Z" fill="#CCCCCC"/>
<path d="M69.5576 108.926H0.942627V225.391H69.5576V108.926Z" fill="#F2F2F2"/>
<path d="M40.2155 196.952H27.5759V225.392H40.2155V196.952Z" fill="#CCCCCC"/>
<path d="M14.0341 205.078V200.564H8.61694V205.078H13.5825H14.0341Z" fill="#3F3D56"/>
<path d="M13.5825 208.689H8.61694V213.203H14.0341V208.689H13.5825Z" fill="#3F3D56"/>
<path d="M23.062 200.564H17.645V205.078H23.062V200.564Z" fill="#3F3D56"/>
<path d="M23.062 208.689H17.645V213.203H23.062V208.689Z" fill="#3F3D56"/>
<path d="M51.05 205.078V200.564H45.6328V205.078H50.5983H51.05Z" fill="#3F3D56"/>
<path d="M50.5983 208.689H45.6328V213.203H51.05V208.689H50.5983Z" fill="#3F3D56"/>
<path d="M60.0779 200.564H54.6609V205.078H60.0779V200.564Z" fill="#3F3D56"/>
<path d="M60.0779 208.689H54.6609V213.203H60.0779V208.689Z" fill="#3F3D56"/>
<path d="M88.9684 114.795V110.281H83.5513V114.795H88.5176H88.9684Z" fill="#3F3D56"/>
<path d="M88.5176 118.406H83.5513V122.92H88.9684V118.406H88.5176Z" fill="#3F3D56"/>
<path d="M97.9966 110.281H92.5796V114.795H97.9966V110.281Z" fill="#3F3D56"/>
<path d="M97.9966 118.406H92.5796V122.92H97.9966V118.406Z" fill="#3F3D56"/>
<path d="M88.9684 140.074V135.56H83.5513V140.074H88.5176H88.9684Z" fill="#3F3D56"/>
<path d="M88.5176 143.686H83.5513V148.2H88.9684V143.686H88.5176Z" fill="#3F3D56"/>
<path d="M97.9966 135.56H92.5796V140.074H97.9966V135.56Z" fill="#3F3D56"/>
<path d="M97.9966 143.686H92.5796V148.2H97.9966V143.686Z" fill="#3F3D56"/>
<path d="M88.9684 165.353V160.84H83.5513V165.353H88.5176H88.9684Z" fill="#3F3D56"/>
<path d="M88.5176 168.965H83.5513V173.479H88.9684V168.965H88.5176Z" fill="#3F3D56"/>
<path d="M97.9966 160.839H92.5796V165.353H97.9966V160.839Z" fill="#3F3D56"/>
<path d="M97.9966 168.965H92.5796V173.479H97.9966V168.965Z" fill="#3F3D56"/>
<path d="M88.9684 190.633V186.119H83.5513V190.633H88.5176H88.9684Z" fill="#3F3D56"/>
<path d="M88.5176 194.244H83.5513V198.758H88.9684V194.244H88.5176Z" fill="#3F3D56"/>
<path d="M97.9966 186.118H92.5796V190.633H97.9966V186.118Z" fill="#3F3D56"/>
<path d="M97.9966 194.244H92.5796V198.758H97.9966V194.244Z" fill="#3F3D56"/>
<path d="M60.9808 114.795H8.6167V125.629H60.9808V114.795Z" fill="#3F3D56"/>
<path d="M60.9808 136.463H8.6167V147.297H60.9808V136.463Z" fill="#3F3D56"/>
<path d="M60.9808 158.131H8.6167V168.965H60.9808V158.131Z" fill="#3F3D56"/>
<path d="M60.9808 179.799H8.6167V190.633H60.9808V179.799Z" fill="#3F3D56"/>
<path d="M108.174 218.397C107.001 219.003 105.909 219.757 104.927 220.641C103.929 219.753 102.82 218.999 101.627 218.397C100.454 219.003 99.3628 219.757 98.3806 220.641C97.3823 219.753 96.273 218.999 95.0807 218.397C95.0807 218.397 89.9918 220.9 90.0059 223.958C90.0062 224.034 90.0097 224.11 90.0163 224.186C90.19 226.189 95.4513 226.699 98.3416 225.755C100.481 226.365 102.749 226.365 104.888 225.755C107.766 226.714 113.134 226.165 113.291 224.139C113.297 224.063 113.3 223.987 113.3 223.911C113.286 220.852 108.174 218.397 108.174 218.397Z" fill="#6C63FF"/>
<path d="M84.6712 112.538L80.1565 108.926L105.436 86.356H169.536V106.218L128.007 134.205L84.6712 112.538Z" fill="#474A56"/>
<path d="M181.224 99.0163V86.8068H172.713V89.7967L169.536 86.356L148.772 108.926L140.647 114.343L128.047 206.391L147.048 225.391H191.205V109.829L181.224 99.0163Z" fill="#CCCCCC"/>
<path d="M148.772 108.926H80.1567V225.391H148.772V108.926Z" fill="#F2F2F2"/>
<path d="M119.43 196.952H106.79V225.392H119.43V196.952Z" fill="#CCCCCC"/>
<path d="M93.2482 205.078V200.564H87.8311V205.078H92.7966H93.2482Z" fill="#3F3D56"/>
<path d="M92.7966 208.689H87.8311V213.203H93.2482V208.689H92.7966Z" fill="#3F3D56"/>
<path d="M102.276 200.564H96.8591V205.078H102.276V200.564Z" fill="#3F3D56"/>
<path d="M102.276 208.689H96.8591V213.203H102.276V208.689Z" fill="#3F3D56"/>
<path d="M130.264 205.078V200.564H124.847V205.078H129.812H130.264Z" fill="#3F3D56"/>
<path d="M129.812 208.689H124.847V213.203H130.264V208.689H129.812Z" fill="#3F3D56"/>
<path d="M139.292 200.564H133.875V205.078H139.292V200.564Z" fill="#3F3D56"/>
<path d="M139.292 208.689H133.875V213.203H139.292V208.689Z" fill="#3F3D56"/>
<path d="M168.182 114.795V110.281H162.765V114.795H167.731H168.182Z" fill="#3F3D56"/>
<path d="M167.731 118.406H162.765V122.92H168.182V118.406H167.731Z" fill="#3F3D56"/>
<path d="M177.211 110.281H171.794V114.795H177.211V110.281Z" fill="#3F3D56"/>
<path d="M177.211 118.406H171.794V122.92H177.211V118.406Z" fill="#3F3D56"/>
<path d="M168.182 140.074V135.56H162.765V140.074H167.731H168.182Z" fill="#3F3D56"/>
<path d="M167.731 143.686H162.765V148.2H168.182V143.686H167.731Z" fill="#3F3D56"/>
<path d="M177.211 135.56H171.794V140.074H177.211V135.56Z" fill="#3F3D56"/>
<path d="M177.211 143.686H171.794V148.2H177.211V143.686Z" fill="#3F3D56"/>
<path d="M168.182 165.353V160.84H162.765V165.353H167.731H168.182Z" fill="#3F3D56"/>
<path d="M167.731 168.965H162.765V173.479H168.182V168.965H167.731Z" fill="#3F3D56"/>
<path d="M177.211 160.839H171.794V165.353H177.211V160.839Z" fill="#3F3D56"/>
<path d="M177.211 168.965H171.794V173.479H177.211V168.965Z" fill="#3F3D56"/>
<path d="M168.182 190.633V186.119H162.765V190.633H167.731H168.182Z" fill="#3F3D56"/>
<path d="M167.731 194.244H162.765V198.758H168.182V194.244H167.731Z" fill="#3F3D56"/>
<path d="M177.211 186.118H171.794V190.633H177.211V186.118Z" fill="#3F3D56"/>
<path d="M177.211 194.244H171.794V198.758H177.211V194.244Z" fill="#3F3D56"/>
<path d="M140.195 114.795H87.8308V125.629H140.195V114.795Z" fill="#3F3D56"/>
<path d="M140.195 136.463H87.8308V147.297H140.195V136.463Z" fill="#3F3D56"/>
<path d="M140.195 158.131H87.8308V168.965H140.195V158.131Z" fill="#3F3D56"/>
<path d="M140.195 179.799H87.8308V190.633H140.195V179.799Z" fill="#3F3D56"/>
<path d="M238.965 138.634H236.779V224.982H238.965V138.634Z" fill="#3F3D56"/>
<g filter="url(#filter0_i_35_186)">
<path d="M260.297 163.764C260.302 164.714 260.293 165.659 260.271 166.6C259.487 200.591 218.736 200.779 217.639 166.796C217.608 165.856 217.591 164.911 217.586 163.961C217.411 125.966 238.625 95.0664 238.625 95.0664C238.625 95.0664 260.122 125.769 260.297 163.764Z" fill="#6889FF"/>
</g>
<path d="M231.362 218.205C230.188 218.812 229.097 219.566 228.115 220.449C227.117 219.562 226.008 218.808 224.815 218.205C223.642 218.812 222.551 219.566 221.569 220.449C220.57 219.562 219.461 218.808 218.269 218.205C218.269 218.205 213.18 220.708 213.194 223.767C213.194 223.843 213.198 223.919 213.204 223.995C213.378 225.997 218.639 226.507 221.53 225.564C223.669 226.174 225.937 226.174 228.076 225.564C230.954 226.523 236.322 225.973 236.479 223.948C236.485 223.872 236.488 223.796 236.488 223.719C236.474 220.661 231.362 218.205 231.362 218.205Z" fill="#474A56"/>
<path d="M292.529 188.375L289.821 183.861L315.1 142.554H380.103V148.874L356.63 193.792L329.545 199.21L292.529 188.375Z" fill="#474A56"/>
<path d="M391.293 174.909V141.143H382.783V145.598L380.103 142.554L358.436 183.861L354.824 187.473L350.31 205.529L358.436 225.391H399.965V184.764L391.293 174.909Z" fill="#CCCCCC"/>
<path d="M358.436 183.861H289.821V225.391H358.436V183.861Z" fill="#F2F2F2"/>
<path d="M348.956 196.952H334.511V209.592H348.956V196.952Z" fill="#3F3D56"/>
<path d="M328.642 196.501H316.002V225.392H328.642V196.501Z" fill="#CCCCCC"/>
<path d="M301.558 201.015V196.501H296.14V201.015H301.106H301.558Z" fill="#3F3D56"/>
<path d="M301.106 204.626H296.14V209.14H301.558V204.626H301.106Z" fill="#3F3D56"/>
<path d="M310.586 196.501H305.168V201.015H310.586V196.501Z" fill="#3F3D56"/>
<path d="M310.586 204.626H305.168V209.141H310.586V204.626Z" fill="#3F3D56"/>
<path d="M377.847 202.121V197.607H372.43V202.121H377.395H377.847Z" fill="#3F3D56"/>
<path d="M377.395 205.733H372.43V210.246H377.847V205.733H377.395Z" fill="#3F3D56"/>
<path d="M386.875 197.607H381.458V202.121H386.875V197.607Z" fill="#3F3D56"/>
<path d="M386.875 205.732H381.458V210.247H386.875V205.732Z" fill="#3F3D56"/>
<path d="M320.939 159.532L320.226 158.344L326.877 147.476H343.98V149.138L337.805 160.957L330.678 162.382L320.939 159.532Z" fill="#474A56"/>
<path d="M343.98 147.476L338.28 158.344L337.33 159.295L336.142 164.046L338.28 169.271H349.207V158.581L343.98 147.476Z" fill="#CCCCCC"/>
<path d="M338.279 158.344H320.226V169.271H338.279V158.344Z" fill="#F2F2F2"/>
<path d="M327.875 163.053V160.897H325.289V163.053H327.659H327.875Z" fill="#3F3D56"/>
<path d="M327.659 164.777H325.289V166.932H327.875V164.777H327.659Z" fill="#3F3D56"/>
<path d="M332.185 160.897H329.599V163.053H332.185V160.897Z" fill="#3F3D56"/>
<path d="M332.185 164.777H329.599V166.932H332.185V164.777Z" fill="#3F3D56"/>
<path d="M374.362 188.375L371.653 183.861L396.932 142.554H461.936V148.874L438.463 193.792L411.378 199.21L374.362 188.375Z" fill="#474A56"/>
<path d="M473.126 174.909V141.143H464.616V145.598L461.936 142.554L440.269 183.861L436.657 187.473L432.143 205.529L440.269 225.391H481.798V184.764L473.126 174.909Z" fill="#CCCCCC"/>
<path d="M440.268 183.861H371.653V225.391H440.268V183.861Z" fill="#F2F2F2"/>
<path d="M430.788 196.952H416.343V209.592H430.788V196.952Z" fill="#3F3D56"/>
<path d="M410.475 196.501H397.835V225.391H410.475V196.501Z" fill="#CCCCCC"/>
<path d="M383.39 201.015V196.5H377.973V201.015H382.939H383.39Z" fill="#3F3D56"/>
<path d="M382.939 204.626H377.973V209.14H383.39V204.626H382.939Z" fill="#3F3D56"/>
<path d="M392.418 196.501H387.001V201.015H392.418V196.501Z" fill="#3F3D56"/>
<path d="M392.418 204.626H387.001V209.141H392.418V204.626Z" fill="#3F3D56"/>
<path d="M459.679 201.467V196.952H454.262V201.467H459.228H459.679Z" fill="#3F3D56"/>
<path d="M459.228 205.077H454.262V209.592H459.679V205.077H459.228Z" fill="#3F3D56"/>
<path d="M468.707 196.952H463.29V201.466H468.707V196.952Z" fill="#3F3D56"/>
<path d="M468.707 205.078H463.29V209.592H468.707V205.078Z" fill="#3F3D56"/>
<path d="M453.576 188.375L450.867 183.861L476.146 142.554H541.15V148.874L517.677 193.792L490.592 199.21L453.576 188.375Z" fill="#474A56"/>
<path d="M552.34 174.909V141.143H543.83V145.598L541.15 142.554L519.483 183.861L515.871 187.473L511.356 205.529L519.483 225.391H561.013V184.764L552.34 174.909Z" fill="#CCCCCC"/>
<path d="M519.482 183.861H450.867V225.391H519.482V183.861Z" fill="#F2F2F2"/>
<path d="M510.002 196.952H495.557V209.592H510.002V196.952Z" fill="#3F3D56"/>
<path d="M489.689 196.501H477.05V225.391H489.689V196.501Z" fill="#CCCCCC"/>
<path d="M462.604 201.015V196.5H457.188V201.015H462.153H462.604Z" fill="#3F3D56"/>
<path d="M462.153 204.626H457.188V209.14H462.604V204.626H462.153Z" fill="#3F3D56"/>
<path d="M471.632 196.501H466.216V201.015H471.632V196.501Z" fill="#3F3D56"/>
<path d="M471.632 204.626H466.216V209.141H471.632V204.626Z" fill="#3F3D56"/>
<path d="M538.893 201.467V196.952H533.476V201.467H538.442H538.893Z" fill="#3F3D56"/>
<path d="M538.442 205.077H533.476V209.592H538.893V205.077H538.442Z" fill="#3F3D56"/>
<path d="M547.921 196.952H542.504V201.466H547.921V196.952Z" fill="#3F3D56"/>
<path d="M547.921 205.078H542.504V209.592H547.921V205.078Z" fill="#3F3D56"/>
<path d="M400.808 160.187L400.095 158.999L406.746 148.13H423.85V149.793L417.673 161.612L410.547 163.037L400.808 160.187Z" fill="#474A56"/>
<path d="M423.85 148.13L418.148 158.999L417.198 159.949L416.011 164.7L418.148 169.926H429.076V159.237L423.85 148.13Z" fill="#CCCCCC"/>
<path d="M418.148 158.999H400.095V169.926H418.148V158.999Z" fill="#F2F2F2"/>
<path d="M407.744 163.707V161.552H405.157V163.707H407.528H407.744Z" fill="#3F3D56"/>
<path d="M407.528 165.432H405.157V167.587H407.744V165.432H407.528Z" fill="#3F3D56"/>
<path d="M412.054 161.552H409.468V163.707H412.054V161.552Z" fill="#3F3D56"/>
<path d="M412.054 165.432H409.468V167.587H412.054V165.432Z" fill="#3F3D56"/>
<path d="M480.677 159.532L479.964 158.344L486.615 147.476H503.718V149.138L497.542 160.957L490.416 162.382L480.677 159.532Z" fill="#474A56"/>
<path d="M503.718 147.476L498.017 158.344L497.067 159.295L495.879 164.046L498.017 169.271H508.944V158.581L503.718 147.476Z" fill="#CCCCCC"/>
<path d="M498.017 158.344H479.964V169.271H498.017V158.344Z" fill="#F2F2F2"/>
<path d="M487.612 163.053V160.897H485.026V163.053H487.397H487.612Z" fill="#3F3D56"/>
<path d="M487.397 164.777H485.026V166.932H487.612V164.777H487.397Z" fill="#3F3D56"/>
<path d="M491.923 160.897H489.336V163.053H491.923V160.897Z" fill="#3F3D56"/>
<path d="M491.923 164.777H489.336V166.932H491.923V164.777Z" fill="#3F3D56"/>
<path d="M535.408 188.375L532.7 183.861L557.979 142.554H622.984V148.874L599.509 193.792L572.424 199.21L535.408 188.375Z" fill="#474A56"/>
<path d="M634.173 148.347V141.143H625.662V145.598L622.983 142.554L601.315 183.861L597.703 187.473L593.189 205.529L601.315 225.391H642.845V184.764L634.173 148.347Z" fill="#CCCCCC"/>
<path d="M601.315 183.861H532.7V225.391H601.315V183.861Z" fill="#F2F2F2"/>
<path d="M591.835 196.952H577.39V209.592H591.835V196.952Z" fill="#3F3D56"/>
<path d="M571.522 196.501H558.882V225.391H571.522V196.501Z" fill="#CCCCCC"/>
<path d="M544.437 201.015V196.5H539.02V201.015H543.985H544.437Z" fill="#3F3D56"/>
<path d="M543.985 204.626H539.02V209.14H544.437V204.626H543.985Z" fill="#3F3D56"/>
<path d="M553.465 196.501H548.048V201.015H553.465V196.501Z" fill="#3F3D56"/>
<path d="M553.465 204.626H548.048V209.141H553.465V204.626Z" fill="#3F3D56"/>
<path d="M620.726 201.467V196.952H615.309V201.467H620.274H620.726Z" fill="#3F3D56"/>
<path d="M620.274 205.077H615.309V209.592H620.726V205.077H620.274Z" fill="#3F3D56"/>
<path d="M629.754 196.952H624.337V201.466H629.754V196.952Z" fill="#3F3D56"/>
<path d="M629.754 205.078H624.337V209.592H629.754V205.078Z" fill="#3F3D56"/>
<path d="M560.545 160.187L559.833 158.999L566.484 148.13H583.587V149.793L577.411 161.612L570.285 163.037L560.545 160.187Z" fill="#474A56"/>
<path d="M583.587 148.13L577.886 158.999L576.936 159.949L575.748 164.7L577.886 169.926H588.813V159.237L583.587 148.13Z" fill="#CCCCCC"/>
<path d="M577.886 158.999H559.833V169.926H577.886V158.999Z" fill="#F2F2F2"/>
<path d="M567.481 163.707V161.552H564.895V163.707H567.266H567.481Z" fill="#3F3D56"/>
<path d="M567.266 165.432H564.895V167.587H567.481V165.432H567.266Z" fill="#3F3D56"/>
<path d="M571.792 161.552H569.205V163.707H571.792V161.552Z" fill="#3F3D56"/>
<path d="M571.792 165.432H569.205V167.587H571.792V165.432Z" fill="#3F3D56"/>
<path d="M720.42 224.943H0.654785V226.252H720.42V224.943Z" fill="#3F3D56"/>
<path d="M719.765 347.365H0V348.674H719.765V347.365Z" fill="#3F3D56"/>
<path d="M673.341 138.621H671.156V224.943H673.341V138.621Z" fill="#3F3D56"/>
<g filter="url(#filter1_i_35_186)">
<path d="M694.668 163.743C694.672 164.693 694.663 165.638 694.641 166.578C693.858 200.559 653.118 200.747 652.022 166.775C651.991 165.835 651.974 164.89 651.969 163.94C651.794 125.957 673.001 95.0664 673.001 95.0664C673.001 95.0664 694.493 125.76 694.668 163.743Z" fill="#6889FF"/>
</g>
<path d="M49.8729 301.828H28.7354V305.183H49.8729V301.828Z" fill="#3F3D56"/>
<path d="M202.7 302.579L198.339 303.588L32.5937 303.677L31.1033 300.204C28.5039 294.248 27.6117 287.686 28.5264 281.252C29.2403 276.456 31.0291 271.69 35.0919 269.621L42.4471 220.631L134.146 220.467L169.623 249.082C169.623 249.082 186.359 248.781 195.451 260.1C198.328 263.685 200.441 268.435 201.008 274.732L201.367 280.621L202.7 302.579Z" fill="#3F3D56"/>
<path d="M166.296 322.227C177.6 322.227 186.763 313.064 186.763 301.76C186.763 290.457 177.6 281.294 166.296 281.294C154.993 281.294 145.83 290.457 145.83 301.76C145.83 313.064 154.993 322.227 166.296 322.227Z" fill="#3F3D56"/>
<path d="M166.296 312.532C172.245 312.532 177.068 307.71 177.068 301.76C177.068 295.811 172.245 290.989 166.296 290.989C160.347 290.989 155.524 295.811 155.524 301.76C155.524 307.71 160.347 312.532 166.296 312.532Z" fill="#CCCCCC"/>
<path d="M65.3057 322.281C76.609 322.281 85.7722 313.118 85.7722 301.814C85.7722 290.511 76.609 281.348 65.3057 281.348C54.0023 281.348 44.8391 290.511 44.8391 301.814C44.8391 313.118 54.0023 322.281 65.3057 322.281Z" fill="#3F3D56"/>
<path d="M65.3056 312.586C71.2547 312.586 76.0774 307.763 76.0774 301.814C76.0774 295.865 71.2547 291.042 65.3056 291.042C59.3564 291.042 54.5337 295.865 54.5337 301.814C54.5337 307.763 59.3564 312.586 65.3056 312.586Z" fill="#CCCCCC"/>
<path d="M155.528 245.737L106.018 245.759H99.9746L89.77 245.766V245.022L89.7628 236.049L89.7556 225.974H96.5441L102.588 225.967L113.294 225.959H119.337L131.697 225.952L155.528 245.737Z" fill="white"/>
<path d="M81.7144 245.773L55.5488 245.788L55.5416 240.653V231.681L55.5344 225.995H59.3658L65.4094 225.988L81.7072 225.981L81.7144 245.773Z" fill="white"/>
<path d="M93.1333 260.532H89.7781V266.907H93.1333V260.532Z" fill="#3F3D56"/>
<path d="M148.489 254.797L148.487 251.442L142.112 251.446L142.114 254.801L148.489 254.797Z" fill="#3F3D56"/>
<path d="M144.458 238.894H144.827C146.687 238.894 148.47 239.633 149.786 240.948C151.101 242.263 151.839 244.047 151.839 245.906C151.839 247.766 151.101 249.55 149.786 250.865C148.47 252.18 146.687 252.919 144.827 252.919H144.458V238.894Z" fill="#3F3D56"/>
<path d="M201.367 280.621C198.829 280.897 196.276 280.268 194.157 278.846C192.037 277.424 190.487 275.3 189.78 272.848C189.073 270.396 189.254 267.772 190.292 265.44C191.329 263.108 193.156 261.217 195.451 260.1C198.328 263.685 200.441 268.435 201.008 274.732L201.367 280.621Z" fill="#3F3D56"/>
<path d="M533.679 263.531L547.671 263.538L547.672 261.317L533.681 261.31L533.679 263.531Z" fill="#3F3D56"/>
<path d="M432.519 261.811L435.406 262.479L545.117 262.538L546.104 260.239C547.824 256.296 548.415 251.953 547.809 247.694C547.337 244.519 546.153 241.365 543.463 239.995L538.595 207.568L477.897 207.459L454.414 226.4C454.414 226.4 443.336 226.201 437.318 233.693C435.147 236.479 433.865 239.854 433.64 243.379L433.402 247.276L432.519 261.811Z" fill="#3F3D56"/>
<path d="M456.616 274.816C464.098 274.816 470.164 268.751 470.164 261.269C470.164 253.787 464.098 247.721 456.616 247.721C449.134 247.721 443.069 253.787 443.069 261.269C443.069 268.751 449.134 274.816 456.616 274.816Z" fill="#3F3D56"/>
<path d="M456.616 268.399C460.554 268.399 463.746 265.207 463.746 261.269C463.746 257.331 460.554 254.138 456.616 254.138C452.678 254.138 449.486 257.331 449.486 261.269C449.486 265.207 452.678 268.399 456.616 268.399Z" fill="#CCCCCC"/>
<path d="M523.464 274.852C530.946 274.852 537.012 268.786 537.012 261.304C537.012 253.822 530.946 247.757 523.464 247.757C515.982 247.757 509.917 253.822 509.917 261.304C509.917 268.786 515.982 274.852 523.464 274.852Z" fill="#3F3D56"/>
<path d="M523.464 268.435C527.402 268.435 530.594 265.242 530.594 261.304C530.594 257.367 527.402 254.174 523.464 254.174C519.526 254.174 516.334 257.367 516.334 261.304C516.334 265.242 519.526 268.435 523.464 268.435Z" fill="#CCCCCC"/>
<path d="M463.745 224.186L496.516 224.201H500.516L507.271 224.205V223.712L507.276 217.773L507.28 211.103H502.787L498.786 211.099L491.701 211.094H487.699L479.519 211.089L463.745 224.186Z" fill="white"/>
<path d="M512.603 224.21L529.922 224.219L529.927 220.821V214.882L529.932 211.118H527.396L523.395 211.114L512.608 211.109L512.603 224.21Z" fill="white"/>
<path d="M505.043 238.198L507.264 238.199L507.266 233.979L505.046 233.978L505.043 238.198Z" fill="#3F3D56"/>
<path d="M472.623 230.185L472.624 227.964L468.404 227.962L468.403 230.183L472.623 230.185Z" fill="#3F3D56"/>
<path d="M471.069 228.941L470.825 228.941C469.594 228.94 468.413 228.45 467.543 227.579C466.673 226.708 466.185 225.527 466.186 224.296C466.186 223.065 466.676 221.885 467.547 221.015C468.418 220.145 469.599 219.657 470.83 219.657L471.074 219.657L471.069 228.941Z" fill="#3F3D56"/>
<path d="M433.402 247.276C435.082 247.459 436.772 247.043 438.175 246.102C439.578 245.16 440.603 243.754 441.071 242.131C441.539 240.508 441.419 238.772 440.733 237.228C440.046 235.684 438.837 234.433 437.318 233.693C435.147 236.479 433.865 239.854 433.64 243.379L433.402 247.276Z" fill="#3F3D56"/>
<path d="M498.786 211.099L507.271 223.712L507.275 217.773L502.787 211.104L498.786 211.099Z" fill="#F2F2F2"/>
<path d="M523.396 211.114L529.927 220.821V214.882L527.396 211.118L523.396 211.114Z" fill="#F2F2F2"/>
<path d="M487.699 211.094L496.516 224.2H500.516L491.7 211.094H487.699Z" fill="#F2F2F2"/>
<path d="M548.007 362.888C548.007 362.888 548.007 387.714 553.705 394.226C553.705 394.226 554.926 397.482 555.333 398.703C555.56 399.398 555.832 400.077 556.147 400.738V402.365C556.147 402.365 567.135 401.144 568.356 398.296L566.321 395.854C566.321 395.854 565.914 395.447 566.321 394.226C566.391 394.093 566.424 393.944 566.416 393.794C566.408 393.644 566.36 393.499 566.276 393.374C566.193 393.249 566.078 393.149 565.942 393.084C565.807 393.019 565.657 392.992 565.507 393.005L562.658 386.493L563.065 359.632L561.03 322.596L543.53 321.782L548.007 362.888Z" fill="#2F2E41"/>
<path d="M556.961 399.924C556.961 399.924 554.112 408.47 556.961 408.877C559.809 409.284 584.636 409.691 584.229 406.435C583.822 403.179 575.682 403.586 575.682 403.586L567.135 398.296L556.961 399.924Z" fill="#2F2E41"/>
<path d="M531.727 322.596C531.378 326.423 532.232 330.265 534.169 333.584C537.425 339.282 535.39 358.411 535.39 358.411L506.494 383.644C506.494 383.644 512.192 393.412 514.227 393.005C516.262 392.598 548.414 366.55 548.414 366.55L561.031 324.224L531.727 322.596Z" fill="#2F2E41"/>
<path d="M506.891 382.566C506.891 382.566 498.147 384.735 499.329 387.359C500.51 389.983 513.457 411.17 515.989 409.084C518.521 406.997 513.82 400.34 513.82 400.34L513.713 390.288L506.891 382.566Z" fill="#2F2E41"/>
<path d="M547.6 256.257C552.77 256.257 556.961 252.066 556.961 246.896C556.961 241.726 552.77 237.535 547.6 237.535C542.43 237.535 538.239 241.726 538.239 246.896C538.239 252.066 542.43 256.257 547.6 256.257Z" fill="#FFB8B8"/>
<path d="M540.235 250.199L540.649 262.244L548.525 265.356C548.525 265.356 549.298 253.023 550.388 252.339C551.478 251.655 540.235 250.199 540.235 250.199Z" fill="#FFB8B8"/>
<path d="M550.449 266.839C550.449 266.839 539.46 255.85 536.611 256.257C533.762 256.664 533.762 257.885 533.762 258.699C533.762 259.513 534.576 259.92 533.762 260.327C532.948 260.734 532.134 260.327 532.134 261.548C532.134 262.769 524.809 274.978 527.251 288.409C529.692 301.84 532.541 308.351 531.32 315.677C530.099 323.003 530.913 324.631 530.913 324.631C530.913 324.631 561.437 327.073 561.844 324.224C562.251 321.375 560.623 323.003 562.658 320.968C564.693 318.933 563.879 318.933 563.879 317.712C563.879 316.491 554.926 266.839 550.449 266.839Z" fill="#575A89"/>
<path d="M532.948 267.653C532.948 267.653 523.386 268.747 526.946 286.311C530.506 303.875 544.344 324.224 544.344 324.224L553.705 319.747L541.495 295.735L544.344 280.676C544.344 280.676 545.972 266.432 532.948 267.653Z" fill="#575A89"/>
<path d="M543.363 252.521C544.157 252.199 544.98 251.954 545.821 251.788C547.278 251.296 548.51 250.298 549.294 248.975C550.077 247.652 550.361 246.092 550.094 244.578C549.978 244.193 549.926 243.792 549.94 243.39C550.055 242.956 550.296 242.566 550.633 242.27C550.97 241.973 551.387 241.783 551.832 241.723C552.721 241.619 553.601 241.452 554.466 241.221C555.099 240.937 555.646 240.492 556.055 239.931C556.463 239.37 556.718 238.712 556.794 238.022C556.927 236.634 556.618 235.24 555.911 234.039L555.596 234.945C555.116 234.538 554.759 234.005 554.567 233.405C554.208 233.466 553.872 233.617 553.589 233.844C553.306 234.072 553.086 234.368 552.95 234.705C552.445 235.003 552.372 233.778 551.813 233.598C551.567 233.567 551.319 233.628 551.116 233.77C549.99 234.295 548.682 233.846 547.474 233.555C545.383 233.053 543.203 233.051 541.111 233.547C539.7 233.824 538.396 234.495 537.35 235.482C536.572 236.366 535.975 237.393 535.591 238.505C534.42 241.162 533.932 244.07 534.172 246.963C534.465 249.31 535.447 251.517 536.993 253.306C537.798 254.234 540.426 257.472 541.867 256.92C543.678 256.226 541.23 253.649 543.363 252.521Z" fill="#2F2E41"/>
<path d="M652.65 262.093C658.049 262.093 662.426 257.717 662.426 252.318C662.426 246.919 658.049 242.543 652.65 242.543C647.251 242.543 642.875 246.919 642.875 252.318C642.875 257.717 647.251 262.093 652.65 262.093Z" fill="#2F2E41"/>
<path d="M638.755 311.532L637.273 314.496C637.273 314.496 632.531 322.203 635.791 323.092C639.052 323.981 640.089 317.312 640.089 317.312L640.682 313.755L638.755 311.532Z" fill="#A0616A"/>
<path d="M644.683 296.416L640.978 306.196L637.273 313.014L641.868 315.978L645.572 309.457L650.019 299.231L644.683 296.416Z" fill="#D0CDE1"/>
<path d="M655.206 342.21L662.616 350.065L675.658 372.147L681.29 370.369L674.62 357.179C674.62 357.179 670.767 347.101 668.84 345.767C666.914 344.433 663.653 335.689 663.653 335.689L660.096 332.873L655.206 342.21Z" fill="#A0616A"/>
<path d="M639.941 346.508L639.348 349.027C639.348 349.027 637.421 356.882 634.457 360.439L627.343 372.74L622.008 370.962L632.53 346.063L639.941 346.508Z" fill="#A0616A"/>
<path d="M650.982 263.736C655.402 263.736 658.985 260.153 658.985 255.733C658.985 251.313 655.402 247.73 650.982 247.73C646.562 247.73 642.979 251.313 642.979 255.733C642.979 260.153 646.562 263.736 650.982 263.736Z" fill="#A0616A"/>
<path d="M657.281 259.661L658.318 268.257L651.649 271.517C651.649 271.517 651.649 264.107 649.87 262.18L657.281 259.661Z" fill="#A0616A"/>
<path d="M678.177 315.089L678.918 317.608C678.918 317.608 683.809 327.242 679.659 327.242C675.51 327.242 674.769 318.349 674.769 318.349L674.324 316.126L678.177 315.089Z" fill="#A0616A"/>
<path d="M644.09 305.011L645.128 312.273L632.531 338.802L631.79 346.508L655.354 349.472L660.541 335.097L668.841 345.767L664.098 334.8C664.098 334.8 662.616 327.39 663.061 325.463C663.505 323.537 662.764 313.903 661.43 311.532C660.096 309.161 644.09 305.011 644.09 305.011Z" fill="#2F2E41"/>
<path d="M674.769 372.147L681.882 369.776L684.105 373.333C684.105 373.333 688.403 374.519 688.255 377.631C688.276 380.462 688.524 383.287 688.996 386.078L685.884 386.375L684.698 380.299L678.622 387.561C678.622 387.561 667.803 388.153 667.358 386.375C666.914 384.596 675.065 382.67 675.065 382.67L676.399 376.297L674.769 372.147Z" fill="#2F2E41"/>
<path d="M621.564 370.072L628.084 372.147V373.629C628.084 373.629 630.011 376.593 629.715 379.113C629.418 381.632 628.084 387.708 628.084 387.708H624.676L624.824 382.077L618.007 387.708C618.007 387.708 605.854 386.819 605.854 384.893C605.854 382.966 615.191 381.632 615.191 381.632L621.564 370.072Z" fill="#2F2E41"/>
<path d="M651.204 269.739C651.204 269.739 657.281 263.662 660.097 265.144V267.812C660.097 267.812 664.246 269.739 664.394 272.703C664.543 275.667 668.841 302.64 668.841 302.64L678.919 337.764C678.919 337.764 675.806 342.655 664.394 337.171L657.281 313.014C657.281 313.014 664.839 340.283 661.134 339.839C657.429 339.394 642.905 305.604 642.905 305.604L643.942 289.598C643.942 289.598 641.571 282.632 646.313 277.89L651.204 269.739Z" fill="#D0CDE1"/>
<path d="M661.579 270.628C661.579 270.628 664.098 271.517 665.876 275.37C667.655 279.224 676.547 306.345 676.547 306.345L678.919 315.978L672.249 317.608L668.989 307.679L656.836 285.152C656.836 285.152 654.909 273.296 661.579 270.628Z" fill="#D0CDE1"/>
<path d="M660.993 249.349C660.96 248.429 660.701 247.532 660.24 246.735C659.779 245.938 659.129 245.268 658.347 244.781C659.161 243.147 659.888 241.283 659.352 239.538C659.134 238.862 658.74 238.255 658.21 237.781C657.681 237.307 657.034 236.983 656.337 236.841C655.56 236.734 654.77 236.745 653.996 236.872L650.344 237.286C649.148 237.332 647.978 237.647 646.921 238.208C646.397 238.539 645.957 238.99 645.639 239.522C645.32 240.055 645.131 240.655 645.086 241.274C645.041 241.893 645.143 242.514 645.382 243.086C645.621 243.659 645.992 244.168 646.463 244.571C643.908 246.615 642.201 248.166 641.038 251.224C642.988 249.635 645.423 248.763 647.938 248.754C649.648 248.662 651.326 249.239 652.617 250.365C653.907 251.49 654.708 253.074 654.849 254.781C654.834 255.637 654.909 256.492 655.073 257.332C655.167 257.751 655.401 258.125 655.737 258.392C656.072 258.659 656.489 258.803 656.918 258.8C656.8 258.817 656.076 256.643 656.586 255.639L656.594 255.623C656.706 255.416 656.891 255.257 657.113 255.178C657.311 255.102 657.523 255.069 657.735 255.081C657.946 255.094 658.153 255.151 658.341 255.249C658.529 255.347 658.694 255.485 658.824 255.652C658.955 255.818 659.049 256.011 659.1 256.217C659.383 257.306 659.837 258.695 660.233 258.327C660.752 257.844 660.534 253.585 660.674 252.925C660.953 251.755 661.061 250.55 660.993 249.349Z" fill="#2F2E41"/>
<path d="M658.307 244.752C658.307 244.752 650.275 245.276 646.434 244.577L658.307 244.752Z" fill="#D0CDE1"/>
<path d="M657.852 243.677C658.665 242.043 659.392 240.179 658.856 238.434C658.605 237.648 658.115 236.959 657.455 236.465C657.959 236.697 658.41 237.031 658.779 237.447C659.148 237.862 659.426 238.35 659.597 238.879C660.133 240.623 659.406 242.488 658.593 244.122C657.947 244.025 659.471 244.54 657.852 243.677Z" fill="#2F2E41"/>
<path opacity="0.2" d="M655.28 285.226L666.839 305.678L671.286 316.794L665.061 306.123L655.28 285.226Z" fill="black"/>
<path d="M121.801 18.7557L121.706 18.8074C120.681 19.3677 119.533 19.6634 118.365 19.6675C117.198 19.6716 116.047 19.384 115.019 18.8309C114.96 18.7989 114.901 18.7673 114.842 18.7361C113.814 18.1872 112.665 17.902 111.499 17.906C110.334 17.91 109.187 18.2032 108.162 18.7592L108.074 18.8074C107.049 19.3677 105.901 19.6634 104.733 19.6675C103.566 19.6716 102.415 19.384 101.387 18.8309C101.325 18.7977 101.264 18.7649 101.203 18.7326C100.187 18.1862 99.0516 17.8992 97.8977 17.8971C96.7438 17.8951 95.6073 18.178 94.589 18.7209C91.4786 20.3959 87.2738 23.2599 87.2923 26.4942C87.293 26.6221 87.3003 26.7499 87.314 26.8771C87.6757 30.236 98.6313 31.0918 104.65 29.5089C109.136 30.5325 113.795 30.5325 118.282 29.5089C124.274 31.1172 135.453 30.1958 135.779 26.7983C135.792 26.6711 135.798 26.5432 135.797 26.4154C135.778 23.1792 131.536 20.3453 128.406 18.6938C127.385 18.1596 126.248 17.8858 125.096 17.8965C123.943 17.9073 122.812 18.2025 121.801 18.7557Z" fill="#E6E6E6"/>
<path d="M325.402 54.2557L325.307 54.3074C324.282 54.8677 323.134 55.1633 321.966 55.1674C320.798 55.1715 319.648 54.884 318.62 54.3308C318.56 54.2989 318.501 54.2673 318.443 54.2361C317.414 53.6872 316.266 53.402 315.1 53.406C313.934 53.41 312.788 53.7032 311.763 54.2592L311.675 54.3074C310.65 54.8677 309.502 55.1633 308.334 55.1674C307.166 55.1715 306.016 54.884 304.988 54.3309C304.926 54.2977 304.865 54.2649 304.804 54.2326C303.788 53.6862 302.652 53.3992 301.498 53.3971C300.345 53.3951 299.208 53.678 298.19 54.2209C295.079 55.8959 290.875 58.7599 290.893 61.9942C290.894 62.1221 290.901 62.2499 290.915 62.3771C291.277 65.736 302.232 66.5919 308.25 65.0089C312.737 66.0326 317.396 66.0326 321.882 65.0089C327.875 66.6172 339.053 65.6958 339.38 62.2984C339.392 62.1711 339.398 62.0433 339.398 61.9154C339.379 58.6793 335.137 55.8453 332.007 54.1938C330.986 53.6596 329.849 53.3858 328.697 53.3965C327.544 53.4073 326.412 53.7024 325.402 54.2557Z" fill="#E6E6E6"/>
<path d="M466.12 20.2957L466.026 20.3474C465.001 20.9077 463.853 21.2034 462.685 21.2075C461.517 21.2116 460.367 20.924 459.339 20.3709C459.279 20.3389 459.22 20.3073 459.162 20.2762C458.133 19.7272 456.985 19.442 455.819 19.446C454.653 19.4501 453.507 19.7432 452.482 20.2992L452.394 20.3474C451.369 20.9078 450.221 21.2034 449.053 21.2075C447.885 21.2116 446.735 20.924 445.707 20.3709C445.645 20.3377 445.584 20.305 445.523 20.2726C444.507 19.7262 443.371 19.4392 442.218 19.4372C441.064 19.4351 439.927 19.7181 438.909 20.2609C435.798 21.9359 431.594 24.7999 431.612 28.0342C431.613 28.1622 431.62 28.2899 431.634 28.4171C431.995 31.776 442.951 32.6319 448.969 31.0489C453.456 32.0726 458.115 32.0726 462.601 31.0489C468.594 32.6572 479.772 31.7358 480.099 28.3384C480.111 28.2111 480.117 28.0833 480.117 27.9554C480.098 24.7193 475.856 21.8854 472.726 20.2339C471.705 19.6997 470.568 19.4258 469.416 19.4366C468.263 19.4474 467.131 19.7425 466.12 20.2957Z" fill="#E6E6E6"/>
<path d="M640.244 -12.0395L640.149 -11.9878C639.124 -11.4275 637.976 -11.1318 636.808 -11.1277C635.641 -11.1236 634.49 -11.4112 633.462 -11.9643C633.403 -11.9963 633.344 -12.0279 633.285 -12.059C632.257 -12.608 631.108 -12.8932 629.942 -12.8892C628.777 -12.8851 627.63 -12.592 626.606 -12.036L626.517 -11.9878C625.492 -11.4274 624.344 -11.1318 623.176 -11.1277C622.009 -11.1236 620.858 -11.4112 619.83 -11.9643C619.768 -11.9975 619.707 -12.0302 619.646 -12.0626C618.63 -12.609 617.495 -12.896 616.341 -12.898C615.187 -12.9001 614.05 -12.6171 613.032 -12.0743C609.922 -10.3993 605.717 -7.5353 605.735 -4.30095C605.736 -4.17304 605.743 -4.04526 605.757 -3.91809C606.119 -0.559192 617.074 0.296677 623.093 -1.28629C627.579 -0.262614 632.238 -0.262614 636.725 -1.28629C642.717 0.322014 653.896 -0.5994 654.222 -3.99681C654.235 -4.12409 654.24 -4.25193 654.24 -4.37981C654.221 -7.61592 649.979 -10.4498 646.849 -12.1013C645.828 -12.6356 644.691 -12.9094 643.539 -12.8986C642.386 -12.8878 641.255 -12.5927 640.244 -12.0395Z" fill="#E6E6E6"/>
<path d="M301.805 276.523L293.015 262.72L303.193 257.269L305.865 267.8L324.687 277.972C325.43 277.704 326.235 277.659 327.004 277.841C327.772 278.023 328.471 278.425 329.015 278.997C329.559 279.57 329.925 280.288 330.068 281.065C330.211 281.841 330.125 282.643 329.82 283.372C329.515 284.1 329.005 284.724 328.352 285.168C327.698 285.612 326.93 285.856 326.14 285.87C325.35 285.885 324.574 285.669 323.904 285.25C323.235 284.83 322.702 284.225 322.371 283.508L301.805 276.523Z" fill="#A0616A"/>
<path d="M286.594 246.163C283.832 250.218 293.647 264.957 293.647 264.957C294.125 263.927 298.695 275.5 299.461 274.817C301.636 272.874 305.042 267.461 306.935 267.22C308.018 267.082 304.424 259.404 304.424 259.404C304.424 259.404 302.782 254.869 300.553 249.078C299.954 247.429 298.947 245.958 297.626 244.803C296.305 243.648 294.713 242.846 292.999 242.471C292.999 242.471 289.355 242.108 286.594 246.163Z" fill="#D4D4D4"/>
<path d="M286.729 378.274L290.903 378.274L292.889 362.172L286.728 362.172L286.729 378.274Z" fill="#A0616A"/>
<path d="M285.663 376.911L286.838 376.911L291.426 375.045L293.884 376.911H293.885C295.274 376.911 296.607 377.463 297.589 378.445C298.572 379.428 299.124 380.76 299.124 382.15V382.32L285.664 382.32L285.663 376.911Z" fill="#D4D4D4"/>
<path d="M306.121 378.274L310.296 378.274L312.282 362.172L306.121 362.172L306.121 378.274Z" fill="#A0616A"/>
<path d="M305.058 376.911L306.233 376.911L310.82 375.045L313.279 376.911H313.279C314.668 376.911 316.001 377.463 316.983 378.445C317.966 379.428 318.518 380.76 318.518 382.15V382.32L305.058 382.32L305.058 376.911Z" fill="#D4D4D4"/>
<path d="M307.929 290.247L280.777 290.926C275.62 293.727 275.542 299.789 277.232 306.986C277.232 306.986 276.661 311.264 277.802 312.405C278.943 313.546 279.513 313.546 278.943 315.542C278.372 317.539 281.386 320.8 281.02 321.166C280.654 321.532 279.798 323.528 279.798 323.528L282.65 339.784C282.65 339.784 284.647 368.019 285.217 368.59C285.788 369.16 286.358 368.59 285.788 370.016C285.217 371.442 284.647 370.871 285.217 371.442C285.722 371.987 286.198 372.558 286.643 373.153H293.539C293.539 373.153 294.058 370.301 294.058 370.016C294.058 369.731 294.629 368.019 294.629 367.734C294.629 367.449 294.125 366.945 294.125 366.945C293.95 366.365 293.833 365.77 293.773 365.167C293.773 364.597 292.062 342.636 292.062 342.636L295.484 314.116L303.755 342.066C303.755 342.066 303.755 366.593 304.326 367.164C304.896 367.734 304.896 367.449 304.611 368.59C304.326 369.731 303.185 369.445 304.04 370.301C304.896 371.157 305.181 369.731 304.896 371.157L304.611 372.583L313.167 372.705C313.167 372.705 314.308 370.301 313.737 369.445C313.167 368.59 313.201 368.823 313.897 367.423C314.593 366.023 314.878 365.738 314.593 365.453C314.308 365.167 314.308 363.65 314.308 363.65L312.882 336.362C312.882 336.362 312.596 307.557 312.596 306.701C312.575 306.261 312.656 305.822 312.833 305.418V304.257L311.741 300.142L307.929 290.247Z" fill="#19191E"/>
<path d="M291.618 233.788C296.277 233.788 300.054 230.011 300.054 225.352C300.054 220.692 296.277 216.915 291.618 216.915C286.958 216.915 283.181 220.692 283.181 225.352C283.181 230.011 286.958 233.788 291.618 233.788Z" fill="#A0616A"/>
<path d="M295.836 239.363C297.653 240.443 298.74 242.429 299.365 244.449C300.52 248.189 301.216 252.056 301.436 255.964L302.095 267.666L310.259 292.58C303.183 298.567 276.587 293.941 276.587 293.941C276.587 293.941 275.771 293.669 276.587 292.853C277.403 292.036 278.198 292.759 277.382 291.943C276.565 291.127 277.128 292.036 277.4 291.22C277.672 290.403 277.4 290.948 277.128 290.675C276.856 290.403 279.235 287.954 279.235 287.954L277.058 273.653L274.336 244.806C277.602 240.723 284.17 238.317 284.17 238.317L285.867 235.262L294.352 235.941L295.836 239.363Z" fill="#3F3D56"/>
<path d="M298.572 220.869C299.228 221.358 299.714 222.04 299.961 222.82C300.056 221.546 300.062 220.267 299.979 218.992C299.88 218.096 299.249 217.894 298.519 217.661C297.859 217.45 297.113 217.211 296.912 216.342C294.261 213.762 289.644 213.892 286.485 214.792C284.746 215.287 283.746 215.923 283.657 216.296L283.638 216.373L283.567 216.408C282.227 217.078 281.966 219.194 281.984 220.851C282.016 223.973 283.094 227.518 283.701 227.806C283.734 227.821 283.742 227.815 283.756 227.804C284.67 227.073 285.785 227.859 286.276 228.287C286.565 226.346 287.496 224.559 288.92 223.21C290.344 221.861 292.179 221.028 294.132 220.844C294.77 220.783 295.403 220.677 296.026 220.527C296.342 220.445 296.667 220.402 296.993 220.4C297.555 220.391 298.106 220.555 298.572 220.869Z" fill="#2F2E41"/>
<path d="M350.945 296.969L367.174 280.489L371.449 267.309L364.569 264.526C361.16 267.964 357.652 278.489 357.652 278.489L346.575 293.355C346.487 293.388 346.398 293.423 346.312 293.464C345.802 293.705 345.362 294.073 345.036 294.533C344.71 294.993 344.508 295.53 344.45 296.091C344.392 296.652 344.48 297.218 344.705 297.735C344.929 298.252 345.284 298.703 345.733 299.043C346.183 299.383 346.713 299.602 347.272 299.677C347.831 299.753 348.4 299.683 348.924 299.475C349.448 299.266 349.909 298.926 350.263 298.487C350.617 298.048 350.852 297.525 350.945 296.969Z" fill="#FFB8B8"/>
<path d="M362.691 266.034L371.393 268.551L371.425 268.545C374.623 267.924 377.154 262.608 378.713 258.259C379.226 256.824 379.175 255.248 378.57 253.85C377.966 252.451 376.853 251.334 375.456 250.725C374.423 250.282 373.287 250.138 372.176 250.307C371.065 250.477 370.023 250.953 369.169 251.684L364.83 255.419L362.691 266.034Z" fill="#6C63FF"/>
<path d="M355.247 377.785L350.567 377.785L348.341 359.735L355.247 359.735L355.247 377.785Z" fill="#FFB8B8"/>
<path d="M356.44 376.256L355.123 376.256L349.98 374.165L347.224 376.256H347.224C345.666 376.256 344.172 376.874 343.071 377.976C341.97 379.077 341.351 380.571 341.351 382.128V382.319L356.44 382.32L356.44 376.256Z" fill="#171717"/>
<path d="M376.011 377.785L371.331 377.785L369.105 359.735L376.011 359.735L376.011 377.785Z" fill="#FFB8B8"/>
<path d="M377.204 376.256L375.887 376.256L370.745 374.165L367.988 376.256H367.988C366.43 376.256 364.937 376.874 363.835 377.976C362.734 379.077 362.115 380.571 362.115 382.128V382.319L377.204 382.32L377.204 376.256Z" fill="#171717"/>
<path d="M383.146 300.038C383.146 300.038 383.693 306.595 382.327 312.879C380.961 319.163 380.961 336.86 380.961 336.86L377.956 371.346L368.94 370.527L366.481 312.879L357.738 332.277L358.558 335.009L357.466 335.692C357.466 335.692 358.284 341.02 357.738 341.02C357.192 341.02 355.826 341.84 355.826 341.84L356.918 369.98L347.629 369.707L344.351 330.092L347.903 307.415L348.176 303.044L349.405 303.094L350.031 301.268L351.181 298.126L383.146 300.038Z" fill="#2F2E41"/>
<path d="M383.619 301.415L383.667 301.347C386.268 297.706 382.357 288.957 381.767 287.689L384.251 286.883L383.692 282.127L383.427 280.006L385.326 278.107L385.331 278.06L386.424 268.498L388.013 262.146C388.612 259.745 388.561 257.228 387.865 254.854C387.17 252.479 385.855 250.332 384.055 248.633L380.383 245.17L375.919 238.566H368.721L366.253 243.228C363.86 243.781 361.737 245.156 360.253 247.113C358.77 249.07 358.02 251.486 358.135 253.939L358.694 266.166L356.505 281.39L356.503 284.145L354.039 286.883L354.577 289.574L352.702 290.378L351.873 294.242C351.531 294.694 349.269 297.711 349.269 298.535C349.269 298.659 349.36 298.779 349.556 298.911C351.098 299.955 359.618 302.084 363.39 300.575C367.407 298.968 383.375 301.378 383.536 301.402L383.619 301.415Z" fill="#171717"/>
<path d="M371.39 236.435C376.655 236.435 380.923 232.166 380.923 226.901C380.923 221.637 376.655 217.368 371.39 217.368C366.125 217.368 361.857 221.637 361.857 226.901C361.857 232.166 366.125 236.435 371.39 236.435Z" fill="#FFB8B8"/>
<path d="M370.477 236.589C371.953 236.574 373.425 236.432 374.878 236.167C376.316 235.835 379.488 233.382 380.352 231.933C380.995 230.857 381.38 229.191 381.591 227.984C381.875 226.386 381.82 224.746 381.43 223.171C381.04 221.595 380.324 220.119 379.327 218.838C378.943 218.302 378.421 217.879 377.816 217.615C377.762 217.595 377.707 217.578 377.652 217.564C376.775 217.357 375.98 216.893 375.369 216.232C375.251 216.098 375.123 215.973 374.986 215.857C374.3 215.308 373.495 214.929 372.635 214.752C371.246 214.418 369.258 214.836 366.728 215.995C365.457 216.578 364.047 216.415 362.959 216.209C362.898 216.198 362.836 216.204 362.778 216.226C362.72 216.247 362.668 216.284 362.629 216.331C362.18 216.775 361.58 217.033 360.949 217.052C360.563 217.079 360.171 217.624 359.699 218.335C359.592 218.496 359.467 218.684 359.376 218.799L359.358 218.584L359.146 218.83C358.812 219.218 358.581 219.684 358.476 220.184C358.371 220.685 358.394 221.204 358.543 221.694C358.692 222.183 358.963 222.627 359.33 222.983C359.697 223.34 360.148 223.598 360.642 223.733C361.033 223.826 361.433 223.879 361.835 223.892C362.079 223.907 362.331 223.923 362.574 223.959C363.352 224.097 364.081 224.435 364.689 224.94C365.298 225.444 365.765 226.098 366.046 226.837C366.112 227.007 366.217 227.161 366.352 227.284C366.486 227.408 366.648 227.5 366.824 227.551C367 227.603 367.185 227.613 367.365 227.582C367.546 227.55 367.716 227.478 367.864 227.37C368.111 227.168 368.402 227.028 368.714 226.963C369.026 226.898 369.349 226.909 369.655 226.996C369.922 227.135 370.132 227.362 370.251 227.638C370.396 227.946 370.628 228.203 370.919 228.378C371.912 228.857 372.037 231.093 371.733 232.967C371.441 234.773 370.804 236.091 370.185 236.171C369.708 236.233 369.655 236.269 369.622 236.354L369.593 236.43L369.649 236.5C369.915 236.589 370.198 236.619 370.477 236.589Z" fill="#2F2E41"/>
<path d="M362.567 267.052L357.985 261.214C353.317 262.499 345.035 269.881 345.035 269.881L328.027 277.262C327.459 277.167 326.876 277.222 326.337 277.424C325.798 277.625 325.321 277.965 324.955 278.41C324.589 278.854 324.346 279.387 324.252 279.954C324.157 280.522 324.214 281.105 324.416 281.644C324.618 282.183 324.958 282.659 325.403 283.025C325.848 283.39 326.381 283.632 326.949 283.726C327.516 283.82 328.099 283.763 328.638 283.56C329.177 283.358 329.652 283.017 330.018 282.571L352.298 276.355L362.567 267.052Z" fill="#FFB8B8"/>
<path d="M361.469 268.388L368.699 260.328L369.101 254.617C369.175 253.495 368.935 252.375 368.407 251.383C367.878 250.391 367.083 249.567 366.11 249.003C364.787 248.248 363.227 248.023 361.744 248.375C360.261 248.726 358.968 249.627 358.124 250.896C355.569 254.746 352.821 259.952 354.235 262.887L354.25 262.917L361.469 268.388Z" fill="#171717"/>
<path d="M294.829 298.682L276.037 289.058C274.7 288.373 274.257 286.557 275.05 285.01L287.302 261.086C288.095 259.539 289.827 258.837 291.164 259.522L309.955 269.146C311.292 269.83 311.735 271.646 310.942 273.193L298.69 297.117C297.897 298.665 296.165 299.366 294.829 298.682Z" fill="#E6E6E6"/>
<path d="M291.618 294.257L278.85 287.719C277.599 287.077 277.184 285.377 277.926 283.928L288.105 264.052C288.847 262.603 290.47 261.946 291.722 262.587L307.142 270.484C308.394 271.126 308.808 272.826 308.066 274.275L302.536 285.073C299.231 291.527 297.194 297.113 291.618 294.257Z" fill="white"/>
<path d="M297.931 283.403L286.623 277.612C286.485 277.513 286.386 277.368 286.346 277.203C286.306 277.038 286.326 276.865 286.404 276.713C286.481 276.562 286.61 276.444 286.768 276.38C286.925 276.317 287.1 276.312 287.261 276.366L298.569 282.158C298.707 282.256 298.806 282.401 298.846 282.566C298.886 282.731 298.866 282.905 298.788 283.056C298.711 283.207 298.582 283.325 298.424 283.389C298.267 283.453 298.092 283.458 297.931 283.403Z" fill="#6889FF"/>
<path d="M287.943 281.395L285.362 280.074C285.224 279.975 285.125 279.83 285.085 279.665C285.045 279.5 285.065 279.326 285.143 279.175C285.22 279.024 285.349 278.906 285.507 278.842C285.664 278.778 285.839 278.773 286 278.828L288.581 280.15C288.719 280.248 288.817 280.393 288.857 280.558C288.898 280.723 288.877 280.897 288.8 281.048C288.722 281.199 288.593 281.317 288.436 281.381C288.278 281.445 288.103 281.45 287.943 281.395Z" fill="#6C63FF"/>
<path d="M291.253 286.198L284.102 282.535C283.963 282.437 283.865 282.292 283.825 282.127C283.785 281.962 283.805 281.788 283.882 281.637C283.96 281.486 284.089 281.367 284.246 281.304C284.404 281.24 284.579 281.235 284.74 281.29L291.891 284.952C292.029 285.051 292.127 285.196 292.168 285.361C292.208 285.525 292.187 285.699 292.11 285.851C292.033 286.002 291.903 286.12 291.746 286.184C291.589 286.247 291.414 286.252 291.253 286.198V286.198Z" fill="#6889FF"/>
<path d="M302.405 274.666L291.096 268.874C290.958 268.776 290.86 268.631 290.819 268.466C290.779 268.301 290.8 268.127 290.877 267.976C290.954 267.825 291.084 267.706 291.241 267.643C291.398 267.579 291.573 267.574 291.734 267.628L303.042 273.42C303.181 273.519 303.279 273.663 303.319 273.828C303.359 273.993 303.339 274.167 303.262 274.318C303.184 274.47 303.055 274.588 302.898 274.652C302.74 274.715 302.565 274.72 302.405 274.666Z" fill="#6889FF"/>
<path d="M292.417 272.658L289.836 271.336C289.698 271.238 289.6 271.093 289.56 270.928C289.519 270.763 289.54 270.589 289.617 270.438C289.695 270.287 289.824 270.168 289.981 270.105C290.139 270.041 290.314 270.036 290.474 270.09L293.055 271.412C293.193 271.511 293.292 271.656 293.332 271.821C293.372 271.985 293.352 272.159 293.274 272.311C293.197 272.462 293.068 272.58 292.91 272.644C292.753 272.707 292.578 272.712 292.417 272.658Z" fill="#6889FF"/>
<path d="M295.728 277.46L288.576 273.797C288.438 273.699 288.34 273.554 288.3 273.389C288.259 273.224 288.28 273.05 288.357 272.899C288.435 272.748 288.564 272.629 288.721 272.566C288.879 272.502 289.054 272.497 289.214 272.552L296.366 276.214C296.504 276.313 296.602 276.458 296.642 276.623C296.683 276.787 296.662 276.961 296.585 277.113C296.507 277.264 296.378 277.382 296.221 277.446C296.064 277.509 295.889 277.514 295.728 277.46L295.728 277.46Z" fill="#6889FF"/>
<path d="M279.256 277.854L275.011 262.049L286.356 259.902L285.746 270.75L300.651 286.098C301.441 286.066 302.222 286.264 302.901 286.668C303.579 287.072 304.125 287.665 304.473 288.374C304.82 289.084 304.954 289.879 304.857 290.663C304.76 291.446 304.438 292.185 303.928 292.789C303.419 293.392 302.745 293.835 301.989 294.062C301.232 294.289 300.426 294.292 299.669 294.069C298.911 293.846 298.235 293.407 297.722 292.806C297.209 292.206 296.882 291.469 296.781 290.685L279.256 277.854Z" fill="#A0616A"/>
<path d="M273.851 244.329C270 247.369 274.943 264.373 274.943 264.373C275.708 263.533 276.597 275.945 277.532 275.522C280.191 274.321 285.063 270.179 286.941 270.517C288.015 270.71 286.89 262.307 286.89 262.307C286.89 262.307 286.683 257.49 286.294 251.296C286.216 249.543 285.697 247.838 284.783 246.34C283.869 244.842 282.591 243.599 281.068 242.728C281.068 242.728 277.702 241.289 273.851 244.329Z" fill="#D5D5D5"/>
<path d="M337.924 312.934L327.67 308.092C327.45 307.989 327.257 307.837 327.105 307.649C326.952 307.461 326.844 307.24 326.789 307.004C326.734 306.774 326.731 306.533 326.782 306.301C326.832 306.07 326.935 305.852 327.081 305.665C330.052 301.869 332.091 297.43 333.037 292.703C333.108 292.341 333.303 292.015 333.588 291.78C333.873 291.546 334.23 291.418 334.599 291.417C339.829 291.435 343.738 293.345 346.216 297.092C346.347 297.287 346.434 297.509 346.47 297.74C346.507 297.972 346.492 298.209 346.427 298.435C344.992 303.381 342.809 308.079 339.952 312.365C339.74 312.689 339.418 312.925 339.045 313.03C338.672 313.134 338.274 313.1 337.924 312.934Z" fill="#E6E6E6"/>
<path d="M340.94 306.142L333.099 302.44C332.904 302.348 332.754 302.182 332.681 301.979C332.608 301.776 332.619 301.552 332.711 301.357C332.803 301.162 332.969 301.012 333.172 300.939C333.375 300.866 333.599 300.877 333.794 300.969L341.634 304.671C341.731 304.717 341.818 304.781 341.89 304.86C341.961 304.939 342.017 305.032 342.053 305.132C342.089 305.233 342.105 305.34 342.1 305.446C342.094 305.553 342.068 305.658 342.023 305.754C341.977 305.851 341.913 305.938 341.834 306.009C341.755 306.081 341.662 306.137 341.562 306.173C341.461 306.209 341.354 306.225 341.248 306.219C341.141 306.214 341.036 306.188 340.94 306.142H340.94Z" fill="#6889FF"/>
<path d="M342.158 303.562L334.318 299.86C334.123 299.768 333.972 299.602 333.899 299.399C333.826 299.196 333.837 298.972 333.929 298.777C334.022 298.582 334.187 298.431 334.39 298.359C334.594 298.286 334.817 298.297 335.012 298.389L342.853 302.091C343.048 302.183 343.198 302.349 343.271 302.552C343.344 302.755 343.333 302.979 343.241 303.174C343.149 303.369 342.983 303.519 342.78 303.592C342.577 303.665 342.353 303.654 342.158 303.562V303.562Z" fill="#6889FF"/>
<path d="M266.287 207.495C271.999 207.495 276.629 202.865 276.629 197.153C276.629 191.441 271.999 186.811 266.287 186.811C260.576 186.811 255.946 191.441 255.946 197.153C255.946 202.865 260.576 207.495 266.287 207.495Z" fill="#6889FF"/>
<path opacity="0.2" d="M273.98 190.245C274.944 192.502 275.075 195.028 274.349 197.372C273.622 199.716 272.086 201.726 270.015 203.042C267.943 204.358 265.471 204.894 263.041 204.555C260.61 204.216 258.38 203.024 256.747 201.191C257.337 202.57 258.219 203.804 259.332 204.808C260.446 205.812 261.764 206.562 263.196 207.006C264.628 207.449 266.14 207.576 267.626 207.378C269.112 207.18 270.537 206.661 271.803 205.857C273.068 205.053 274.144 203.983 274.955 202.722C275.766 201.462 276.294 200.039 276.501 198.554C276.708 197.069 276.59 195.557 276.154 194.122C275.719 192.688 274.977 191.365 273.98 190.245Z" fill="black"/>
<path d="M266.205 196.995H266.234L266.745 226.317H265.665L266.205 196.995Z" fill="#3F3D56"/>
<path d="M268.199 213.125L267.961 212.672L266.251 213.572L266.489 214.025L268.199 213.125Z" fill="#3F3D56"/>
<path d="M427.038 74.5488L429.442 72.6258C427.575 72.4197 426.807 73.4384 426.493 74.2447C425.034 73.6387 423.446 74.4328 423.446 74.4328L428.256 76.1792C428.013 75.531 427.591 74.9654 427.038 74.5488Z" fill="#F3F3F3"/>
<path d="M444.865 84.205L447.269 82.2821C445.401 82.076 444.634 83.0946 444.32 83.9009C442.861 83.295 441.272 84.0891 441.272 84.0891L446.083 85.8355C445.84 85.1873 445.418 84.6217 444.865 84.205Z" fill="#F3F3F3"/>
<path d="M450.807 73.0632L453.211 71.1402C451.344 70.9341 450.576 71.9528 450.262 72.7591C448.803 72.1531 447.215 72.9472 447.215 72.9472L452.025 74.6936C451.782 74.0454 451.36 73.4798 450.807 73.0632Z" fill="#F3F3F3"/>
<path d="M444.865 61.1789L447.269 59.2559C445.401 59.0499 444.634 60.0685 444.32 60.8748C442.861 60.2689 441.272 61.063 441.272 61.063L446.083 62.8094C445.84 62.1611 445.418 61.5956 444.865 61.1789Z" fill="#F3F3F3"/>
</g>
<defs>
<filter id="filter0_i_35_186" x="217.585" y="95.0664" width="42.7131" height="97.1218" filterUnits="userSpaceOnUse" color-interpolation-filters="sRGB">
<feFlood flood-opacity="0" result="BackgroundImageFix"/>
<feBlend mode="normal" in="SourceGraphic" in2="BackgroundImageFix" result="shape"/>
<feColorMatrix in="SourceAlpha" type="matrix" values="0 0 0 0 0 0 0 0 0 0 0 0 0 0 0 0 0 0 127 0" result="hardAlpha"/>
<feOffset dx="-3" dy="-6"/>
<feComposite in2="hardAlpha" operator="arithmetic" k2="-1" k3="1"/>
<feColorMatrix type="matrix" values="0 0 0 0 0 0 0 0 0 0 0 0 0 0 0 0 0 0 0.25 0"/>
<feBlend mode="normal" in2="shape" result="effect1_innerShadow_35_186"/>
</filter>
<filter id="filter1_i_35_186" x="651.968" y="95.0664" width="42.7006" height="97.0928" filterUnits="userSpaceOnUse" color-interpolation-filters="sRGB">
<feFlood flood-opacity="0" result="BackgroundImageFix"/>
<feBlend mode="normal" in="SourceGraphic" in2="BackgroundImageFix" result="shape"/>
<feColorMatrix in="SourceAlpha" type="matrix" values="0 0 0 0 0 0 0 0 0 0 0 0 0 0 0 0 0 0 127 0" result="hardAlpha"/>
<feOffset dx="-3" dy="-6"/>
<feComposite in2="hardAlpha" operator="arithmetic" k2="-1" k3="1"/>
<feColorMatrix type="matrix" values="0 0 0 0 0 0 0 0 0 0 0 0 0 0 0 0 0 0 0.25 0"/>
<feBlend mode="normal" in2="shape" result="effect1_innerShadow_35_186"/>
</filter>
<clipPath id="clip0_35_186">
<rect width="720.42" height="438.946" fill="white"/>
</clipPath>
</defs>
</svg>
