<svg width="656" height="276" viewBox="0 0 656 276" fill="none" xmlns="http://www.w3.org/2000/svg">
<path d="M546.581 30.3677V50.8526H517.934V274.257H577.72V59.3563V50.8526V30.3677H546.581Z" fill="#3F3D56"/>
<path d="M388.759 159.948V122.222H352.276V159.948H338.595V274.373H402.026V159.948H388.759Z" fill="#575A89"/>
<path d="M394.915 220H345.58V273.481H394.915V220Z" fill="#3F3D56"/>
<path opacity="0.1" d="M353.457 221.747H345.58V275.228H353.457V221.747Z" fill="black"/>
<path d="M495.977 0V12.852H423.01V0H401.452V274.453H517.121V0H495.977Z" fill="#6889FF"/>
<path opacity="0.1" d="M417.621 0H401.452V274.452H417.621V0Z" fill="#3F3D56"/>
<path d="M319.098 78.4601V68.0955H308.319V78.4601H288.833V274.557H338.169V78.4601H319.098Z" fill="#6889FF"/>
<path opacity="0.1" d="M294.944 78.5714H288.833V275H294.944V78.5714Z" fill="#2F2E41"/>
<path opacity="0.1" d="M512.276 105.337H496.108V274.072H512.276V105.337Z" fill="black"/>
<path d="M446.252 70.2249H423.036V80.1748H446.252V70.2249Z" fill="white"/>
<path d="M497.761 56.5967H474.544V66.5466H497.761V56.5967Z" fill="white"/>
<path d="M446.252 41.7554H423.036V51.7053H446.252V41.7554Z" fill="white"/>
<path d="M325.731 115.776H302.515V125.726H325.731V115.776Z" fill="white"/>
<path d="M325.731 93.9496H302.515V103.9H325.731V93.9496Z" fill="white"/>
<path d="M381.891 144.048H358.675V153.998H381.891V144.048Z" fill="white"/>
<path opacity="0.1" d="M389.993 171.812H350.193V188.395H389.993V171.812Z" fill="white"/>
<path opacity="0.1" d="M566.275 67.3779H526.475V83.9611H566.275V67.3779Z" fill="white"/>
<path opacity="0.1" d="M567.118 99.1974H527.319V115.781H567.118V99.1974Z" fill="white"/>
<path opacity="0.1" d="M480.538 143.175H440.738V159.758H480.538V143.175Z" fill="black"/>
<path opacity="0.1" d="M480.538 178.415H440.738V194.998H480.538V178.415Z" fill="black"/>
<path opacity="0.1" d="M480.538 143.175H440.738V159.758H480.538V143.175Z" fill="black"/>
<path opacity="0.1" d="M480.538 178.415H440.738V194.998H480.538V178.415Z" fill="black"/>
<path opacity="0.1" d="M565.22 131.59H525.42V148.174H565.22V131.59Z" fill="white"/>
<path opacity="0.1" d="M565.22 166.83H525.42V183.413H565.22V166.83Z" fill="black"/>
<path d="M590.124 128.126V82.9368H561.103V128.126H550.739V274.473H600.074V128.126H590.124Z" fill="#2F2E41"/>
<path opacity="0.1" d="M559.86 128.333H550.739V274.68H559.86V128.333Z" fill="black"/>
<path opacity="0.1" d="M597.897 165.607H573.437V180.117H597.897V165.607Z" fill="black"/>
<path d="M597.484 144.048H574.268V153.998H597.484V144.048Z" fill="white"/>
<path d="M601.217 163.738V159.851C601.217 158.366 600.648 156.938 599.629 155.858C598.609 154.778 597.216 154.129 595.733 154.043V138.863H594.443V154.026H588.636V163.704H561.215V275L621.864 275V185.558C621.863 179.971 619.723 174.596 615.884 170.538C612.044 166.48 606.796 164.047 601.217 163.738Z" fill="#2F2E41"/>
<path d="M579.28 179.457H571.215V185.909H579.28V179.457Z" fill="white"/>
<path d="M592.507 179.457H584.442V185.909H592.507V179.457Z" fill="white"/>
<path d="M605.733 179.457H597.668V185.909H605.733V179.457Z" fill="white"/>
<path d="M579.28 195.909H571.215V202.361H579.28V195.909Z" fill="white"/>
<path d="M592.507 195.909H584.442V202.361H592.507V195.909Z" fill="white"/>
<path d="M605.733 195.909H597.668V202.361H605.733V195.909Z" fill="white"/>
<path d="M579.28 212.362H571.215V218.814H579.28V212.362Z" fill="white"/>
<path d="M592.507 212.362H584.442V218.814H592.507V212.362Z" fill="white"/>
<path d="M605.733 212.362H597.668V218.814H605.733V212.362Z" fill="white"/>
<path d="M579.28 228.815H571.215V235.267H579.28V228.815Z" fill="white"/>
<path d="M592.507 228.815H584.442V235.267H592.507V228.815Z" fill="white"/>
<path d="M605.733 228.815H597.668V235.267H605.733V228.815Z" fill="white"/>
<path d="M579.28 245.267H571.215V251.719H579.28V245.267Z" fill="white"/>
<path d="M592.507 245.267H584.442V251.719H592.507V245.267Z" fill="white"/>
<path d="M605.733 245.267H597.668V251.719H605.733V245.267Z" fill="white"/>
<path d="M579.28 261.72H571.215V268.172H579.28V261.72Z" fill="white"/>
<path d="M592.507 261.72H584.442V268.172H592.507V261.72Z" fill="white"/>
<path d="M605.733 261.72H597.668V268.172H605.733V261.72Z" fill="white"/>
<path d="M312.248 161.938V158.051C312.247 156.566 311.679 155.138 310.659 154.058C309.64 152.978 308.246 152.329 306.764 152.243V137.063H305.473V152.226H299.666V161.904H272.246V273.2H332.894V183.758C332.894 178.171 330.754 172.796 326.914 168.738C323.074 164.68 317.826 162.247 312.248 161.938Z" fill="#2F2E41"/>
<path d="M290.311 177.711H282.246V184.163H290.311V177.711Z" fill="white"/>
<path d="M303.538 177.711H295.473V184.163H303.538V177.711Z" fill="white"/>
<path d="M316.764 177.711H308.699V184.163H316.764V177.711Z" fill="white"/>
<path d="M290.311 194.164H282.246V200.616H290.311V194.164Z" fill="white"/>
<path d="M303.538 194.164H295.473V200.616H303.538V194.164Z" fill="white"/>
<path d="M316.764 194.164H308.699V200.616H316.764V194.164Z" fill="white"/>
<path d="M290.311 210.616H282.246V217.068H290.311V210.616Z" fill="white"/>
<path d="M303.538 210.616H295.473V217.068H303.538V210.616Z" fill="white"/>
<path d="M316.764 210.616H308.699V217.068H316.764V210.616Z" fill="white"/>
<path d="M290.311 227.068H282.246V233.52H290.311V227.068Z" fill="white"/>
<path d="M303.538 227.068H295.473V233.52H303.538V227.068Z" fill="white"/>
<path d="M316.764 227.068H308.699V233.52H316.764V227.068Z" fill="white"/>
<path d="M290.311 243.521H282.246V249.973H290.311V243.521Z" fill="white"/>
<path d="M303.538 243.521H295.473V249.973H303.538V243.521Z" fill="white"/>
<path d="M316.764 243.521H308.699V249.973H316.764V243.521Z" fill="white"/>
<path d="M290.311 259.974H282.246V266.426H290.311V259.974Z" fill="white"/>
<path d="M303.538 259.974H295.473V266.426H303.538V259.974Z" fill="white"/>
<path d="M316.764 259.974H308.699V266.426H316.764V259.974Z" fill="white"/>
<path d="M92.7362 274.404H92.0689C92.0689 266.085 88.7645 258.107 82.8827 252.225C77.0009 246.342 69.0234 243.038 60.7053 243.038C52.3871 243.038 44.4096 246.342 38.5278 252.225C32.646 258.107 29.1108 266.681 29.1108 275H28.6743C28.6743 266.505 32.049 257.76 38.056 251.753C44.0629 245.745 52.2101 242.37 60.7053 242.37C69.2004 242.37 77.3476 245.745 83.3546 251.753C89.3615 257.76 92.7362 265.908 92.7362 274.404Z" fill="#3F3D56"/>
<path d="M81.5021 150.162C91.1452 150.162 98.9624 142.344 98.9624 132.7C98.9624 123.056 91.1452 115.238 81.5021 115.238C71.859 115.238 64.0417 123.056 64.0417 132.7C64.0417 142.344 71.859 150.162 81.5021 150.162Z" fill="white"/>
<path d="M80.0215 220.014L102.664 193.047H147.18L174.384 219.546L173.834 219.9H174.031V275.019H80.0525V219.9L80.0215 220.014Z" fill="#3F3D56"/>
<path d="M93.6437 208.289H98.7764V190.521H93.6437V208.289Z" fill="#3F3D56"/>
<path d="M102.31 192.693L130.22 225.418V275.018H80.0515V219.193L102.31 192.693Z" fill="#6889FF"/>
<path d="M80.0215 220.014L102.664 193.047H147.18L174.384 219.546L173.834 219.9H174.031V275.019H80.0525V219.9L80.0215 220.014Z" fill="#3F3D56"/>
<path d="M93.6437 208.289H98.7764V190.521H93.6437V208.289Z" fill="#3F3D56"/>
<path d="M102.31 192.693L130.22 225.418V275.018H80.0515V219.193L102.31 192.693Z" fill="#6889FF"/>
<path d="M123.135 233.968H115.508V241.767H123.135V233.968Z" fill="#3F3D56"/>
<path d="M123.135 248.225H115.508V256.024H123.135V248.225Z" fill="#3F3D56"/>
<path d="M123.135 233.968H115.508V241.767H123.135V233.968Z" fill="white"/>
<path d="M123.135 248.225H115.508V256.024H123.135V248.225Z" fill="white"/>
<path d="M108.964 233.968H101.338V241.767H108.964V233.968Z" fill="#3F3D56"/>
<path d="M108.964 248.225H101.338V256.024H108.964V248.225Z" fill="#3F3D56"/>
<path d="M108.964 233.968H101.338V241.767H108.964V233.968Z" fill="white"/>
<path d="M108.964 248.225H101.338V256.024H108.964V248.225Z" fill="white"/>
<path d="M94.7937 233.968H87.167V241.767H94.7937V233.968Z" fill="#3F3D56"/>
<path d="M94.7937 248.225H87.167V256.024H94.7937V248.225Z" fill="#3F3D56"/>
<path d="M94.7937 233.968H87.167V241.767H94.7937V233.968Z" fill="white"/>
<path d="M94.7937 248.225H87.167V256.024H94.7937V248.225Z" fill="white"/>
<path d="M194.826 162.389H190.336V174.364H194.826V162.389Z" fill="#6C63FF"/>
<path d="M194.827 174.365H155.16V275H194.985L194.827 174.365Z" fill="#6889FF"/>
<path d="M210.544 174.365H194.827V275H210.544V174.365Z" fill="#3F3D56"/>
<path d="M168.65 195.32H162.644V201.327H168.65V195.32Z" fill="white"/>
<path d="M178.326 195.32H172.32V201.327H178.326V195.32Z" fill="white"/>
<path d="M188.001 195.32H181.995V201.327H188.001V195.32Z" fill="white"/>
<path d="M168.817 209.001H162.811V215.007H168.817V209.001Z" fill="white"/>
<path d="M178.492 209.001H172.486V215.007H178.492V209.001Z" fill="white"/>
<path d="M188.167 209.001H182.161V215.007H188.167V209.001Z" fill="white"/>
<path d="M168.982 222.682H162.977V228.688H168.982V222.682Z" fill="white"/>
<path d="M178.659 222.682H172.653V228.688H178.659V222.682Z" fill="white"/>
<path d="M188.336 222.682H182.33V228.688H188.336V222.682Z" fill="white"/>
<path d="M169.15 236.363H163.144V242.369H169.15V236.363Z" fill="white"/>
<path d="M178.825 236.363H172.819V242.369H178.825V236.363Z" fill="white"/>
<path d="M188.502 236.363H182.497V242.369H188.502V236.363Z" fill="white"/>
<path d="M169.316 250.044H163.31V256.05H169.316V250.044Z" fill="white"/>
<path d="M178.994 250.044H172.988V256.05H178.994V250.044Z" fill="white"/>
<path d="M188.669 250.044H182.664V256.05H188.669V250.044Z" fill="white"/>
<path d="M197.072 162.389H194.827V175.113H197.072V162.389Z" fill="#3F3D56"/>
<path d="M38.2367 259.204C43.0352 259.204 46.9252 255.314 46.9252 250.515C46.9252 245.716 43.0352 241.826 38.2367 241.826C33.4381 241.826 29.5481 245.716 29.5481 250.515C29.5481 255.314 33.4381 259.204 38.2367 259.204Z" fill="#6889FF"/>
<path opacity="0.2" d="M44.6997 244.712C45.5101 246.608 45.62 248.73 45.0098 250.7C44.3996 252.669 43.109 254.357 41.3686 255.463C39.6283 256.568 37.5516 257.019 35.5096 256.734C33.4676 256.449 31.5934 255.448 30.2219 253.908C30.717 255.066 31.458 256.103 32.3935 256.947C33.3291 257.79 34.4368 258.42 35.64 258.793C36.8432 259.166 38.113 259.273 39.3616 259.106C40.6101 258.94 41.8075 258.503 42.8708 257.828C43.934 257.153 44.8378 256.254 45.5194 255.195C46.2009 254.135 46.644 252.94 46.818 251.693C46.992 250.445 46.8926 249.175 46.5269 247.969C46.1611 246.764 45.5376 245.652 44.6997 244.712H44.6997Z" fill="black"/>
<path d="M38.2593 250.515H38.2833L38.7138 275H37.8408L38.2593 250.515Z" fill="#3F3D56"/>
<path d="M81.5561 138.237L84.6276 135.781C82.2415 135.517 81.261 136.819 80.8598 137.849C78.9957 137.075 76.9663 138.089 76.9663 138.089L83.1119 140.32C82.8018 139.492 82.2622 138.77 81.5561 138.237V138.237Z" fill="#292929"/>
<path d="M74.6034 118.267L77.675 115.811C75.2888 115.547 74.3084 116.849 73.9072 117.879C72.043 117.105 70.0137 118.119 70.0137 118.119L76.1592 120.351C75.8492 119.522 75.3095 118.8 74.6034 118.267Z" fill="#212121"/>
<path d="M107.889 160.063L110.96 157.607C108.574 157.343 107.594 158.645 107.192 159.675C105.328 158.901 103.299 159.915 103.299 159.915L109.444 162.146C109.134 161.318 108.595 160.596 107.889 160.063V160.063Z" fill="#F3F3F3"/>
<path d="M137.237 130.604L140.308 128.147C137.922 127.884 136.942 129.185 136.54 130.215C134.676 129.441 132.647 130.456 132.647 130.456L138.793 132.687C138.483 131.859 137.943 131.136 137.237 130.604V130.604Z" fill="#F3F3F3"/>
<path d="M160.012 142.941L163.084 140.484C160.698 140.221 159.717 141.522 159.316 142.552C157.452 141.778 155.423 142.793 155.423 142.793L161.568 145.024C161.258 144.196 160.718 143.473 160.012 142.941V142.941Z" fill="#F3F3F3"/>
<path d="M167.604 128.706L170.676 126.249C168.29 125.986 167.309 127.287 166.908 128.318C165.044 127.543 163.014 128.558 163.014 128.558L169.16 130.789C168.85 129.961 168.31 129.238 167.604 128.706V128.706Z" fill="#F3F3F3"/>
<path d="M160.012 113.522L163.084 111.066C160.698 110.802 159.717 112.104 159.316 113.134C157.452 112.36 155.423 113.374 155.423 113.374L161.568 115.606C161.258 114.777 160.718 114.055 160.012 113.522V113.522Z" fill="#F3F3F3"/>
<path d="M227.338 174.078L230.409 171.621C228.023 171.357 227.043 172.659 226.641 173.689C224.777 172.915 222.748 173.929 222.748 173.929L228.893 176.161C228.583 175.332 228.044 174.61 227.338 174.078Z" fill="#F3F3F3"/>
<path d="M71.7164 251.046H66.3779V256.385H68.8526V275H69.52V256.385H71.7164V251.046Z" fill="#3F3D56"/>
<path d="M249.807 129.333H245.136V141.012H249.807V129.333Z" fill="#6C63FF"/>
<path d="M249.473 140.011H209.768V275H249.473V140.011Z" fill="#6889FF"/>
<path d="M259.825 140.011H249.474V275H259.825V140.011Z" fill="#3F3D56"/>
<path d="M222.948 151.69H216.942V157.696H222.948V151.69Z" fill="white"/>
<path d="M232.624 151.69H226.618V157.696H232.624V151.69Z" fill="white"/>
<path d="M242.3 151.69H236.294V157.696H242.3V151.69Z" fill="white"/>
<path d="M223.115 165.371H217.109V171.377H223.115V165.371Z" fill="white"/>
<path d="M232.79 165.371H226.785V171.377H232.79V165.371Z" fill="white"/>
<path d="M242.466 165.371H236.46V171.377H242.466V165.371Z" fill="white"/>
<path d="M223.281 179.052H217.275V185.058H223.281V179.052Z" fill="white"/>
<path d="M232.957 179.052H226.951V185.058H232.957V179.052Z" fill="white"/>
<path d="M242.634 179.052H236.629V185.058H242.634V179.052Z" fill="white"/>
<path d="M223.448 192.733H217.442V198.74H223.448V192.733Z" fill="white"/>
<path d="M233.124 192.733H227.118V198.74H233.124V192.733Z" fill="white"/>
<path d="M242.801 192.733H236.795V198.74H242.801V192.733Z" fill="white"/>
<path d="M223.615 206.414H217.609V212.42H223.615V206.414Z" fill="white"/>
<path d="M233.292 206.414H227.287V212.42H233.292V206.414Z" fill="white"/>
<path d="M242.967 206.414H236.961V212.42H242.967V206.414Z" fill="white"/>
<path d="M223.782 220.095H217.776V226.101H223.782V220.095Z" fill="white"/>
<path d="M233.458 220.095H227.453V226.101H233.458V220.095Z" fill="white"/>
<path d="M243.134 220.095H237.128V226.101H243.134V220.095Z" fill="white"/>
<path d="M223.949 233.776H217.944V239.782H223.949V233.776Z" fill="white"/>
<path d="M233.625 233.776H227.62V239.782H233.625V233.776Z" fill="white"/>
<path d="M243.3 233.776H237.295V239.782H243.3V233.776Z" fill="white"/>
<path d="M224.116 247.456H218.11V253.462H224.116V247.456Z" fill="white"/>
<path d="M233.792 247.456H227.786V253.462H233.792V247.456Z" fill="white"/>
<path d="M243.468 247.456H237.462V253.462H243.468V247.456Z" fill="white"/>
<path d="M252.143 129.333H249.474V140.678H252.143V129.333Z" fill="#3F3D56"/>
<path d="M299.855 188.729H295.184V195.65H299.855V188.729Z" fill="#6C63FF"/>
<path d="M299.521 195.057H259.816V275H299.309L299.521 195.057Z" fill="#6889FF"/>
<path d="M315.325 194.683H299.31V275.001H315.325V194.683Z" fill="#3F3D56"/>
<path d="M272.142 207.778H266.136V213.784H272.142V207.778Z" fill="white"/>
<path d="M281.817 207.778H275.811V213.784H281.817V207.778Z" fill="white"/>
<path d="M291.493 207.778H285.487V213.784H291.493V207.778Z" fill="white"/>
<path d="M272.307 221.459H266.301V227.466H272.307V221.459Z" fill="white"/>
<path d="M281.984 221.459H275.978V227.466H281.984V221.459Z" fill="white"/>
<path d="M291.661 221.459H285.655V227.466H291.661V221.459Z" fill="white"/>
<path d="M272.474 235.14H266.468V241.146H272.474V235.14Z" fill="white"/>
<path d="M282.15 235.14H276.145V241.146H282.15V235.14Z" fill="white"/>
<path d="M291.828 235.14H285.822V241.146H291.828V235.14Z" fill="white"/>
<path d="M272.642 248.82H266.636V254.826H272.642V248.82Z" fill="white"/>
<path d="M282.318 248.82H276.312V254.826H282.318V248.82Z" fill="white"/>
<path d="M291.994 248.82H285.988V254.826H291.994V248.82Z" fill="white"/>
<path d="M302.191 188.729H299.522V195.453H302.191V188.729Z" fill="#3F3D56"/>
<path d="M476.317 198.5H475.649C475.649 166.853 449.905 141.107 418.261 141.107C386.616 141.107 360.872 166.853 360.872 198.5H360.205C360.205 166.485 386.248 140.44 418.261 140.44C450.273 140.44 476.317 166.485 476.317 198.5Z" fill="#3F3D56"/>
<path d="M309.786 219.649L332.428 192.682H376.944L404.149 219.182L403.599 219.535H403.795V274.654H309.817V219.535L309.786 219.649Z" fill="#3F3D56"/>
<path d="M323.409 207.926H328.542V190.158H323.409V207.926Z" fill="#3F3D56"/>
<path d="M332.075 192.329L359.985 225.054V274.654H309.817V218.828L332.075 192.329Z" fill="#6889FF"/>
<path d="M309.709 219.996L332.352 193.029H376.868L404.072 219.528L403.522 219.882H403.719V275H309.74V219.882L309.709 219.996Z" fill="#3F3D56"/>
<path d="M323.409 207.926H328.542V190.158H323.409V207.926Z" fill="#3F3D56"/>
<path d="M332.075 192.675L359.985 225.4V275H309.817V219.175L332.075 192.675Z" fill="#6889FF"/>
<path d="M424.933 129.094H420.262V140.773H424.933V129.094Z" fill="#6C63FF"/>
<path d="M424.601 139.772H384.896V275H424.601V139.772Z" fill="#6889FF"/>
<path d="M440.616 139.772H424.6V275H440.616V139.772Z" fill="#3F3D56"/>
<path d="M398.075 151.451H392.069V157.457H398.075V151.451Z" fill="white"/>
<path d="M407.75 151.451H401.744V157.457H407.75V151.451Z" fill="white"/>
<path d="M417.426 151.451H411.42V157.457H417.426V151.451Z" fill="white"/>
<path d="M398.241 165.131H392.235V171.138H398.241V165.131Z" fill="white"/>
<path d="M407.917 165.131H401.911V171.138H407.917V165.131Z" fill="white"/>
<path d="M417.594 165.131H411.588V171.138H417.594V165.131Z" fill="white"/>
<path d="M398.408 178.813H392.403V184.819H398.408V178.813Z" fill="white"/>
<path d="M408.083 178.813H402.077V184.819H408.083V178.813Z" fill="white"/>
<path d="M417.761 178.813H411.755V184.819H417.761V178.813Z" fill="white"/>
<path d="M398.575 192.494H392.569V198.5H398.575V192.494Z" fill="white"/>
<path d="M408.252 192.494H402.246V198.5H408.252V192.494Z" fill="white"/>
<path d="M527.137 139.772H487.432L487.5 275H527.137V139.772Z" fill="#6889FF"/>
<path d="M417.927 192.494H411.921V198.5H417.927V192.494Z" fill="white"/>
<path d="M398.742 206.174H392.736V212.181H398.742V206.174Z" fill="white"/>
<path d="M408.418 206.174H402.413V212.181H408.418V206.174Z" fill="white"/>
<path d="M418.094 206.174H412.088V212.181H418.094V206.174Z" fill="white"/>
<path d="M398.909 219.855H392.903V225.861H398.909V219.855Z" fill="white"/>
<path d="M408.585 219.855H402.58V225.861H408.585V219.855Z" fill="white"/>
<path d="M418.261 219.855H412.255V225.861H418.261V219.855Z" fill="white"/>
<path d="M399.075 233.536H393.069V239.543H399.075V233.536Z" fill="white"/>
<path d="M527.471 129.094H522.8V139.755L527.471 139.805V129.094Z" fill="#6C63FF"/>
<path d="M578.855 195.008H578.187C578.187 163.361 552.443 137.615 520.799 137.615C489.154 137.615 463.41 163.361 463.41 195.008H462.742C462.742 162.993 488.786 136.947 520.799 136.947C552.811 136.947 578.855 162.993 578.855 195.008Z" fill="#3F3D56"/>
<path d="M408.751 233.536H402.746V239.543H408.751V233.536Z" fill="white"/>
<path d="M418.428 233.536H412.422V239.543H418.428V233.536Z" fill="white"/>
<path d="M399.242 247.217H393.237V253.223H399.242V247.217Z" fill="white"/>
<path d="M408.917 247.217H402.912V253.223H408.917V247.217Z" fill="white"/>
<path d="M408.917 263.234H402.912V274.579H408.917V263.234Z" fill="white"/>
<path d="M418.594 247.217H412.588V253.223H418.594V247.217Z" fill="white"/>
<path d="M427.269 129.094H424.6V140.439H427.269V129.094Z" fill="#3F3D56"/>
<path d="M474.982 188.489H470.311V195.411H474.982V188.489Z" fill="#6C63FF"/>
<path d="M474.648 194.818H434.943V275H474.648V194.818Z" fill="#6889FF"/>
<path d="M490.663 194.818H474.648V275H490.663V194.818Z" fill="#3F3D56"/>
<path d="M448.79 206.174H442.784V212.181H448.79V206.174Z" fill="white"/>
<path d="M458.467 206.174H452.461V212.181H458.467V206.174Z" fill="white"/>
<path d="M468.143 206.174H462.137V212.181H468.143V206.174Z" fill="white"/>
<path d="M448.957 219.855H442.951V225.861H448.957V219.855Z" fill="white"/>
<path d="M458.633 219.855H452.627V225.861H458.633V219.855Z" fill="white"/>
<path d="M468.309 219.855H462.303V225.861H468.309V219.855Z" fill="white"/>
<path d="M449.123 233.536H443.117V239.543H449.123V233.536Z" fill="white"/>
<path d="M458.8 233.536H452.794V239.543H458.8V233.536Z" fill="white"/>
<path d="M468.476 233.536H462.47V239.543H468.476V233.536Z" fill="white"/>
<path d="M449.291 247.217H443.286V253.223H449.291V247.217Z" fill="white"/>
<path d="M458.966 247.217H452.96V253.223H458.966V247.217Z" fill="white"/>
<path d="M458.966 263.234H452.96V274.579H458.966V263.234Z" fill="white"/>
<path d="M468.642 247.217H462.636V253.223H468.642V247.217Z" fill="white"/>
<path d="M477.317 188.489H474.648V195.213H477.317V188.489Z" fill="#3F3D56"/>
<path d="M457.102 174.587L460.173 172.13C457.787 171.867 456.807 173.168 456.406 174.199C454.542 173.424 452.512 174.439 452.512 174.439L458.658 176.67C458.348 175.842 457.808 175.119 457.102 174.587Z" fill="#F3F3F3"/>
<path d="M655.08 275H654.312C654.312 266.682 651.108 258.435 645.227 252.553C639.345 246.671 631.367 243.366 623.049 243.366C614.731 243.366 606.753 246.671 600.872 252.553C594.99 258.435 591.685 266.413 591.685 274.732H591.018C591.018 266.236 594.393 258.088 600.4 252.081C606.407 246.074 614.554 242.699 623.049 242.699C631.544 242.699 639.691 246.074 645.698 252.081C651.705 258.088 655.08 266.236 655.08 274.732V275Z" fill="#3F3D56"/>
<path d="M543.153 139.772H527.138V275H543.153V139.772Z" fill="#3F3D56"/>
<path d="M500.611 151.451H494.606V157.457H500.611V151.451Z" fill="white"/>
<path d="M510.289 151.451H504.283V157.457H510.289V151.451Z" fill="white"/>
<path d="M519.965 151.451H513.959V157.457H519.965V151.451Z" fill="white"/>
<path d="M500.779 165.131H494.773V171.137H500.779V165.131Z" fill="white"/>
<path d="M510.455 165.131H504.449V171.137H510.455V165.131Z" fill="white"/>
<path d="M520.131 165.131H514.125V171.137H520.131V165.131Z" fill="white"/>
<path d="M500.946 178.813H494.94V184.819H500.946V178.813Z" fill="white"/>
<path d="M510.623 178.813H504.617V184.819H510.623V178.813Z" fill="white"/>
<path d="M520.297 178.813H514.292V184.819H520.297V178.813Z" fill="white"/>
<path d="M501.113 192.494H495.107V198.5H501.113V192.494Z" fill="white"/>
<path d="M510.788 192.494H504.783V198.5H510.788V192.494Z" fill="white"/>
<path d="M520.464 192.494H514.458V198.5H520.464V192.494Z" fill="white"/>
<path d="M501.28 206.174H495.274V212.181H501.28V206.174Z" fill="white"/>
<path d="M510.955 206.174H504.95V212.181H510.955V206.174Z" fill="white"/>
<path d="M520.631 206.174H514.625V212.181H520.631V206.174Z" fill="white"/>
<path d="M501.447 219.855H495.441V225.861H501.447V219.855Z" fill="white"/>
<path d="M511.122 219.855H505.116V225.861H511.122V219.855Z" fill="white"/>
<path d="M520.798 219.855H514.792V225.861H520.798V219.855Z" fill="white"/>
<path d="M501.613 233.536H495.607V239.543H501.613V233.536Z" fill="white"/>
<path d="M511.289 233.536H505.284V239.543H511.289V233.536Z" fill="white"/>
<path d="M520.965 233.536H514.959V239.543H520.965V233.536Z" fill="white"/>
<path d="M501.779 247.217H495.773V253.223H501.779V247.217Z" fill="white"/>
<path d="M511.456 247.217H505.451V253.223H511.456V247.217Z" fill="white"/>
<path d="M511.456 263.234H505.451V274.579H511.456V263.234Z" fill="white"/>
<path d="M521.133 247.217H515.127V253.223H521.133V247.217Z" fill="white"/>
<path d="M529.807 129.094H527.138V140.439H529.807V129.094Z" fill="#3F3D56"/>
<path d="M577.52 188.489H572.849V195.411H577.52V188.489Z" fill="#6C63FF"/>
<path d="M577.186 194.818H537.481V275H577.186V194.818Z" fill="#6889FF"/>
<path d="M593.202 194.818H577.187V275H593.202V194.818Z" fill="#3F3D56"/>
<path d="M551.328 206.174H545.323V212.181H551.328V206.174Z" fill="white"/>
<path d="M561.004 206.174H554.999V212.181H561.004V206.174Z" fill="white"/>
<path d="M570.68 206.174H564.674V212.181H570.68V206.174Z" fill="white"/>
<path d="M551.496 219.855H545.49V225.861H551.496V219.855Z" fill="white"/>
<path d="M561.171 219.855H555.165V225.861H561.171V219.855Z" fill="white"/>
<path d="M570.847 219.855H564.841V225.861H570.847V219.855Z" fill="white"/>
<path d="M551.662 233.536H545.656V239.543H551.662V233.536Z" fill="white"/>
<path d="M561.338 233.536H555.332V239.543H561.338V233.536Z" fill="white"/>
<path d="M571.013 233.536H565.007V239.543H571.013V233.536Z" fill="white"/>
<path d="M551.827 247.217H545.822V253.223H551.827V247.217Z" fill="white"/>
<path d="M561.505 247.217H555.499V253.223H561.505V247.217Z" fill="white"/>
<path d="M561.505 263.234H555.499V274.579H561.505V263.234Z" fill="white"/>
<path d="M571.181 247.217H565.175V253.223H571.181V247.217Z" fill="white"/>
<path d="M579.856 188.489H577.187V195.213H579.856V188.489Z" fill="#3F3D56"/>
<path d="M605.433 259.256C610.232 259.256 614.122 255.366 614.122 250.567C614.122 245.768 610.232 241.878 605.433 241.878C600.635 241.878 596.745 245.768 596.745 250.567C596.745 255.366 600.635 259.256 605.433 259.256Z" fill="#6889FF"/>
<path opacity="0.2" d="M611.897 244.764C612.707 246.66 612.817 248.782 612.207 250.751C611.597 252.721 610.306 254.409 608.566 255.515C606.825 256.62 604.749 257.071 602.707 256.786C600.665 256.501 598.791 255.5 597.419 253.96C597.914 255.118 598.655 256.155 599.591 256.999C600.526 257.842 601.634 258.472 602.837 258.845C604.04 259.218 605.31 259.325 606.559 259.158C607.807 258.992 609.005 258.555 610.068 257.88C611.131 257.205 612.035 256.306 612.716 255.247C613.398 254.187 613.841 252.992 614.015 251.745C614.189 250.497 614.09 249.227 613.724 248.021C613.358 246.816 612.735 245.704 611.897 244.764V244.764Z" fill="black"/>
<path d="M605.457 250.931H605.481L605.86 275.001H604.987L605.457 250.931Z" fill="#3F3D56"/>
<path d="M607.04 263.986L606.84 263.606L605.404 264.362L605.604 264.742L607.04 263.986Z" fill="#3F3D56"/>
<path d="M630.978 250.953C638.275 250.953 644.191 245.038 644.191 237.74C644.191 230.442 638.275 224.526 630.978 224.526C623.681 224.526 617.766 230.442 617.766 237.74C617.766 245.038 623.681 250.953 630.978 250.953Z" fill="#6889FF"/>
<path opacity="0.2" d="M640.806 228.915C642.038 231.798 642.205 235.025 641.277 238.02C640.349 241.015 638.387 243.583 635.74 245.264C633.094 246.945 629.936 247.63 626.83 247.197C623.725 246.764 620.875 245.24 618.79 242.899C619.542 244.661 620.669 246.237 622.092 247.52C623.515 248.803 625.199 249.761 627.029 250.328C628.858 250.895 630.789 251.057 632.688 250.804C634.587 250.55 636.408 249.887 638.024 248.86C639.641 247.833 641.016 246.467 642.052 244.856C643.089 243.245 643.762 241.428 644.027 239.53C644.292 237.633 644.14 235.701 643.584 233.868C643.028 232.035 642.08 230.345 640.806 228.915V228.915Z" fill="black"/>
<path d="M630.873 237.538H630.909L631.562 275.001H630.183L630.873 237.538Z" fill="#3F3D56"/>
<path d="M633.42 258.146L633.116 257.568L630.932 258.718L631.236 259.296L633.42 258.146Z" fill="#3F3D56"/>
<path d="M561.792 128.205L558.72 125.749C561.107 125.485 562.087 126.787 562.488 127.817C564.352 127.043 566.382 128.057 566.382 128.057L560.236 130.289C560.546 129.46 561.086 128.738 561.792 128.205V128.205Z" fill="#F3F3F3"/>
<path d="M608.503 153.231L605.432 150.774C607.818 150.511 608.798 151.812 609.2 152.842C611.064 152.068 613.093 153.083 613.093 153.083L606.948 155.314C607.258 154.486 607.797 153.763 608.503 153.231V153.231Z" fill="#F3F3F3"/>
<path d="M440.193 160.572L443.265 158.115C440.878 157.852 439.898 159.154 439.497 160.184C437.633 159.409 435.603 160.424 435.603 160.424L441.749 162.655C441.439 161.827 440.899 161.104 440.193 160.572V160.572Z" fill="#F3F3F3"/>
<path d="M558.123 174.587L555.051 172.13C557.437 171.867 558.418 173.168 558.819 174.199C560.683 173.424 562.712 174.439 562.712 174.439L556.567 176.67C556.877 175.842 557.417 175.119 558.123 174.587Z" fill="#F3F3F3"/>
<path d="M648.718 270.429C647.902 270.429 647.1 270.644 646.393 271.053C645.675 270.404 644.784 269.977 643.828 269.825C642.873 269.672 641.893 269.8 641.009 270.193C640.125 270.586 639.373 271.228 638.847 272.04C638.32 272.852 638.04 274.032 638.041 275H653.319C653.235 273.822 652.762 272.487 651.899 271.682C651.035 270.878 649.899 270.43 648.718 270.429Z" fill="#3F3D56"/>
<path d="M56.8117 270.429C55.9952 270.429 55.1931 270.644 54.4863 271.053C53.7685 270.404 52.8776 269.977 51.9219 269.825C50.9662 269.672 49.9868 269.8 49.1025 270.193C48.2181 270.586 47.467 271.228 46.9402 272.04C46.4134 272.852 46.1336 274.032 46.1348 275H61.4126C61.329 273.822 60.8558 272.487 59.9922 271.682C59.1286 270.878 57.9922 270.43 56.8117 270.429Z" fill="#3F3D56"/>
<path d="M353.611 233.968H345.984V241.767H353.611V233.968Z" fill="#3F3D56"/>
<path d="M353.611 248.225H345.984V256.024H353.611V248.225Z" fill="#3F3D56"/>
<path d="M353.611 233.968H345.984V241.767H353.611V233.968Z" fill="white"/>
<path d="M353.611 248.225H345.984V256.024H353.611V248.225Z" fill="white"/>
<path d="M339.441 233.968H331.814V241.767H339.441V233.968Z" fill="#3F3D56"/>
<path d="M339.441 248.225H331.814V256.024H339.441V248.225Z" fill="#3F3D56"/>
<path d="M339.441 233.968H331.814V241.767H339.441V233.968Z" fill="white"/>
<path d="M339.441 248.225H331.814V256.024H339.441V248.225Z" fill="white"/>
<path d="M325.27 233.968H317.644V241.767H325.27V233.968Z" fill="#3F3D56"/>
<path d="M325.27 248.225H317.644V256.024H325.27V248.225Z" fill="#3F3D56"/>
<path d="M325.27 233.968H317.644V241.767H325.27V233.968Z" fill="white"/>
<path d="M325.27 248.225H317.644V256.024H325.27V248.225Z" fill="white"/>
<path d="M2.7376 251.951C2.71835 251.956 2.70032 251.965 2.68458 251.978C2.66885 251.99 2.65572 252.005 2.64598 252.022C2.63624 252.04 2.63008 252.059 2.62787 252.079C2.62566 252.099 2.62745 252.119 2.63312 252.138L2.77062 252.147C2.81719 252.124 2.86376 252.1 2.91033 252.077C2.90751 252.057 2.90077 252.038 2.8905 252.021C2.88023 252.004 2.86665 251.989 2.85055 251.978C2.83444 251.966 2.81615 251.958 2.79675 251.953C2.77735 251.948 2.75724 251.948 2.7376 251.951V251.951Z" fill="#E6E6E6"/>
<path d="M2.17775 252.121C2.13841 252.149 2.10682 252.187 2.08598 252.23C2.06514 252.274 2.05572 252.322 2.05862 252.37C2.06309 252.418 2.08274 252.464 2.11473 252.5C2.14671 252.536 2.18936 252.561 2.23651 252.571C2.28411 252.579 2.33276 252.568 2.37263 252.541C2.4125 252.514 2.44061 252.473 2.45128 252.426C2.47454 252.283 2.32168 252.179 2.26674 252.046L2.17775 252.121Z" fill="#E6E6E6"/>
<path d="M1.13854 274.471L1.65474 274.471L1.9003 272.479L1.13843 272.48L1.13854 274.471Z" fill="#FFB6B6"/>
<path d="M5.0172 274.471L5.53341 274.471L5.77896 272.479L5.01709 272.48L5.0172 274.471Z" fill="#FFB6B6"/>
<path d="M1.11792 258.274L2.03401 258.143C2.34383 258.661 2.45393 260.04 2.45393 260.04L3.35046 262.171C3.40984 262.211 3.45754 262.266 3.48877 262.331C3.52 262.396 3.53366 262.467 3.52836 262.539C3.52307 262.61 3.49901 262.679 3.45861 262.739C3.41821 262.798 3.3629 262.846 3.29824 262.877C3.23358 262.908 3.16185 262.922 3.09027 262.916C3.0187 262.911 2.94981 262.887 2.89053 262.846C2.83125 262.806 2.78368 262.75 2.75261 262.686C2.72153 262.621 2.70805 262.549 2.71351 262.478L1.2415 259.997L1.11792 258.274Z" fill="#FFB6B6"/>
<path d="M1.61481 255.731C1.47301 255.753 1.3378 255.806 1.2188 255.886C1.09979 255.966 0.99991 256.071 0.926265 256.194C0.85262 256.318 0.807021 256.455 0.792711 256.598C0.7784 256.741 0.795729 256.885 0.843467 257.02L1.03787 257.571C1.03787 257.571 0.792988 259.231 1.19656 259.699L2.43494 259.587C2.43494 259.587 2.20853 258.75 2.38236 258.345C2.48881 258.097 2.4829 257.24 2.37801 256.543C2.29791 256.011 2.14657 255.648 1.61481 255.731Z" fill="#3F3D56"/>
<path d="M5.88545 260.729C5.88545 260.729 6.83999 261.66 6.63614 261.875C6.4323 262.09 5.96603 262.392 6.3988 262.441C6.83157 262.49 7.01111 262.596 6.63614 262.685C6.26118 262.775 6.31913 263.005 6.31913 263.005C6.31913 263.005 6.88363 265.692 6.45584 267.46C6.45584 267.46 6.21775 272.29 6.06835 272.666C5.91895 273.042 5.86191 272.814 5.91895 273.042C5.97599 273.27 6.09006 272.871 5.97599 273.27C5.91374 273.479 5.86445 273.691 5.82841 273.906L4.71259 273.734C4.71259 273.734 4.53294 273.168 4.71259 273.019C4.89225 272.871 5.0534 272.962 4.85874 272.631C4.66409 272.3 4.60705 272.757 4.66409 272.3C4.72113 271.844 4.48301 269.376 4.85875 268.072L4.16439 264.412L3.06202 268.202C3.06202 268.202 2.47729 272.83 2.28731 272.993C2.09733 273.156 1.81214 272.871 2.09733 273.156C2.38253 273.441 2.37755 273.392 2.38253 273.441C2.43565 273.964 0.802641 273.392 0.802641 273.392C0.81172 273.259 0.81172 273.126 0.802641 272.993C0.785436 272.871 0.990963 272.832 0.802641 272.709C0.614319 272.586 0.894534 272.708 0.894534 272.708C0.894534 272.708 1.31565 269.293 1.63604 268.259L2.00679 263.22C2.00679 263.22 2.03033 263.321 2.00679 263.076C1.98326 262.832 1.81214 263.003 1.98326 262.832C2.15437 262.661 2.26845 262.574 2.15437 262.446C2.0403 262.319 1.7256 262.061 1.91147 261.904C2.09733 261.748 2.4631 260.729 2.4631 260.729L6.02804 260.758" fill="#2F2E41"/>
<path d="M4.54593 255.073L3.90313 254.349L2.88744 254.462L2.23716 255.372C1.89103 255.451 1.58855 255.661 1.39197 255.956C1.19539 256.252 1.11965 256.612 1.18033 256.962C1.43268 258.415 2.29025 259.824 2.00709 260.541C1.57724 261.63 1.55102 262.074 2.57995 261.921C3.60888 261.768 7.05601 261.417 6.38769 260.748C5.71937 260.08 5.57257 258.963 5.57257 258.963L5.54577 256.408C5.57419 256.254 5.5704 256.096 5.53466 255.943C5.49891 255.791 5.43197 255.647 5.33806 255.522C5.24415 255.396 5.12529 255.292 4.98896 255.214C4.85263 255.137 4.70179 255.089 4.54593 255.073V255.073Z" fill="#3F3D56"/>
<path d="M4.36987 257.875L5.28596 257.743C5.59578 258.261 5.70588 259.64 5.70588 259.64L6.60242 261.771C6.66179 261.812 6.70949 261.867 6.74072 261.932C6.77195 261.996 6.78561 262.068 6.78031 262.139C6.77502 262.211 6.75096 262.28 6.71057 262.339C6.67017 262.399 6.61485 262.446 6.55019 262.477C6.48553 262.509 6.4138 262.522 6.34223 262.517C6.27065 262.511 6.20176 262.487 6.14248 262.447C6.08321 262.406 6.03564 262.351 6.00456 262.286C5.97348 262.221 5.96 262.15 5.96547 262.078L4.49345 259.598L4.36987 257.875Z" fill="#FFB6B6"/>
<path d="M4.86529 255.331C4.7235 255.353 4.58829 255.406 4.46929 255.486C4.35028 255.566 4.2504 255.672 4.17675 255.795C4.10311 255.918 4.05751 256.056 4.0432 256.199C4.02889 256.342 4.04622 256.486 4.09396 256.621L4.28836 257.172C4.28836 257.172 4.04348 258.831 4.44705 259.299L5.68543 259.187C5.68543 259.187 5.45902 258.35 5.63284 257.945C5.7393 257.697 5.73339 256.841 5.62849 256.144C5.5484 255.612 5.39706 255.249 4.86529 255.331Z" fill="#3F3D56"/>
<path d="M3.11536 254.287C3.79337 254.287 4.34302 253.737 4.34302 253.059C4.34302 252.381 3.79337 251.831 3.11536 251.831C2.43734 251.831 1.8877 252.381 1.8877 253.059C1.8877 253.737 2.43734 254.287 3.11536 254.287Z" fill="#FFB6B6"/>
<path d="M2.88998 254.261C3.23189 254.175 3.24353 254.077 3.58545 253.992C3.69432 253.964 3.82046 253.921 3.85273 253.814C3.86039 253.775 3.85882 253.734 3.84815 253.695C3.83748 253.657 3.818 253.621 3.79124 253.591C3.73737 253.532 3.68691 253.47 3.64009 253.406C3.60908 253.354 3.5912 253.295 3.588 253.234C3.58479 253.174 3.59636 253.114 3.6217 253.059C3.64704 253.004 3.68539 252.956 3.73344 252.919C3.78148 252.882 3.83778 252.857 3.89746 252.847C4.00323 252.829 4.11229 252.857 4.21873 252.843C4.36472 252.825 4.57945 252.283 4.48586 252.17C4.39476 252.059 4.24523 251.993 4.195 251.859C4.16214 251.771 4.1801 251.673 4.16547 251.581C4.14377 251.443 3.8661 251.823 3.90306 251.689C3.99372 251.361 2.45975 251.309 2.30006 251.731C2.24038 251.888 2.0788 251.913 1.95452 252.027C1.87306 252.101 1.67824 252.34 1.64999 252.468C1.6266 252.598 1.6311 252.732 1.6632 252.86C1.7906 253.46 2.00116 253.992 2.56164 254.242" fill="#2F2E41"/>
</svg>
